<?xml version="1.0" encoding="UTF-8" standalone="no"?>
<svg
   id="Layer_1"
   data-name="Layer 1"
   viewBox="0 0 48 47.999999"
   version="1.1"
   sodipodi:docname="bioart.svg"
   width="48"
   height="48"
   inkscape:version="1.4 (86a8ad7, 2024-10-11)"
   xml:space="preserve"
   xmlns:inkscape="http://www.inkscape.org/namespaces/inkscape"
   xmlns:sodipodi="http://sodipodi.sourceforge.net/DTD/sodipodi-0.dtd"
   xmlns="http://www.w3.org/2000/svg"
   xmlns:svg="http://www.w3.org/2000/svg"
   xmlns:rdf="http://www.w3.org/1999/02/22-rdf-syntax-ns#"
   xmlns:cc="http://creativecommons.org/ns#"
   xmlns:dc="http://purl.org/dc/elements/1.1/"><metadata
     id="metadata47"><rdf:RDF><cc:Work
         rdf:about=""><dc:format>image/svg+xml</dc:format><dc:type
           rdf:resource="http://purl.org/dc/dcmitype/StillImage" /><dc:title>Bioart logo</dc:title></cc:Work></rdf:RDF></metadata><sodipodi:namedview
     pagecolor="#ffffff"
     bordercolor="#999999"
     borderopacity="1"
     objecttolerance="10"
     gridtolerance="10"
     guidetolerance="10"
     inkscape:pageopacity="0"
     inkscape:pageshadow="0"
     inkscape:window-width="1534"
     inkscape:window-height="843"
     id="namedview45"
     showgrid="false"
     inkscape:zoom="2.1826528"
     inkscape:cx="124.13182"
     inkscape:cy="104.77682"
     inkscape:window-x="66"
     inkscape:window-y="20"
     inkscape:window-maximized="1"
     inkscape:current-layer="Layer_1"
     inkscape:showpageshadow="2"
     inkscape:pagecheckerboard="0"
     inkscape:deskcolor="#d1d1d1" /><defs
     id="defs4"><style
       id="style2">.cls-1{fill:#2f9ec2;}.cls-2{fill:#d1eaf2;}.cls-3{fill:#9bd1e2;}.cls-4{fill:#80c4da;}.cls-5{fill:#65b7d2;}.cls-6{fill:#4aabca;}</style></defs><title
     id="title6">Reactome_Imagotype_Positive</title><path
     style="fill:#d1d1d1;stroke-width:1"
     d="m 20.532734,32.240781 c 0.04696,-0.006 0.123813,-0.006 0.170776,0 0.04696,0.006 0.0085,0.0106 -0.08539,0.0106 -0.09393,0 -0.132351,-0.005 -0.08539,-0.0106 z m 13.926449,-0.0252 c 0.01897,-0.008 0.04163,-0.007 0.05036,0.002 0.0087,0.009 -0.0068,0.0149 -0.03448,0.0138 -0.03061,-10e-4 -0.03683,-0.007 -0.01587,-0.0159 z m -11.94232,-0.0265 c 0.02556,-0.007 0.06103,-0.006 0.07882,9.7e-4 0.01779,0.007 -0.0031,0.0126 -0.04648,0.0121 -0.04335,-5.7e-4 -0.0579,-0.006 -0.03234,-0.0131 z m 4.019802,0 c 0.02556,-0.007 0.06103,-0.006 0.07882,9.7e-4 0.01779,0.007 -0.0031,0.0126 -0.04648,0.0121 -0.04335,-5.7e-4 -0.05791,-0.006 -0.03234,-0.0131 z m -11.961378,-0.46463 c 0,-0.005 0.0207,-0.0261 0.046,-0.046 0.0417,-0.0327 0.0426,-0.0318 0.01,0.01 -0.0343,0.0438 -0.0559,0.0577 -0.0559,0.0361 z m 24.956202,-0.0361 c -0.03268,-0.0417 -0.03175,-0.0426 0.0099,-0.01 0.02529,0.0198 0.04598,0.0405 0.04598,0.046 0,0.0216 -0.02157,0.008 -0.0559,-0.0361 z m -28.150902,-0.0394 -0.05,-0.0591 0.0591,0.05 c 0.0325,0.0275 0.0591,0.0541 0.0591,0.0591 0,0.021 -0.0211,0.006 -0.0682,-0.05 z m 21.162225,0.0131 c -0.03268,-0.0417 -0.03175,-0.0426 0.0099,-0.01 0.02529,0.0198 0.04598,0.0405 0.04598,0.046 0,0.0216 -0.02157,0.008 -0.0559,-0.0361 z m -28.3076946,-0.0657 -0.0772,-0.0854 0.0854,0.0772 c 0.0796,0.0719 0.0975,0.0936 0.0772,0.0936 -0.005,0 -0.0429,-0.0384 -0.0854,-0.0854 z m 36.8698536,0.0143 c 0.03268,-0.006 0.07997,-0.006 0.105093,4.9e-4 0.02512,0.007 -0.0016,0.0117 -0.05942,0.0114 -0.0578,-3.3e-4 -0.07835,-0.006 -0.04567,-0.012 z m -34.7581336,-0.0256 c 0.019,-0.008 0.0416,-0.007 0.0504,0.002 0.009,0.009 -0.007,0.0149 -0.0345,0.0138 -0.0306,-10e-4 -0.0368,-0.007 -0.0159,-0.0159 z m 14.2909896,-5.8e-4 c 0.03251,-0.006 0.08572,-0.006 0.11823,0 0.03251,0.006 0.0059,0.0114 -0.05912,0.0114 -0.06503,0 -0.09163,-0.005 -0.05911,-0.0114 z m -9.48141,-0.15882 c -0.0327,-0.0417 -0.0318,-0.0426 0.01,-0.01 0.0253,0.0198 0.046,0.0405 0.046,0.046 0,0.0216 -0.0216,0.008 -0.0559,-0.0361 z m 21.149937,0 c -0.03268,-0.0417 -0.03175,-0.0426 0.0099,-0.01 0.02529,0.0198 0.04598,0.0405 0.04598,0.046 0,0.0216 -0.02158,0.008 -0.0559,-0.0361 z m -17.415797,-0.0165 c 0,-0.005 0.0207,-0.0261 0.046,-0.046 0.0417,-0.0327 0.0426,-0.0317 0.01,0.01 -0.0343,0.0438 -0.0559,0.0577 -0.0559,0.036 z m -10.1428696,-0.27251 -0.0905,-0.0985 0.0985,0.0905 c 0.0917,0.0843 0.1106,0.10651 0.0905,0.10651 -0.004,0 -0.0487,-0.0443 -0.0985,-0.0985 z m 14.7912446,0.0263 -0.06369,-0.0722 0.07225,0.0637 c 0.03974,0.035 0.07225,0.0675 0.07225,0.0722 0,0.0206 -0.02128,0.004 -0.08081,-0.0637 z m 2.314032,-0.0197 c 0.04902,-0.0506 0.09504,-0.0919 0.102264,-0.0919 0.0072,0 -0.02697,0.0414 -0.07599,0.0919 -0.04902,0.0506 -0.09504,0.092 -0.102264,0.092 -0.0072,0 0.02697,-0.0414 0.07599,-0.092 z m -7.592957,-0.0263 c 0.0339,-0.0361 0.0676,-0.0657 0.0748,-0.0657 0.007,0 -0.0146,0.0296 -0.0486,0.0657 -0.0339,0.0361 -0.0676,0.0657 -0.0748,0.0657 -0.007,0 0.0146,-0.0295 0.0486,-0.0657 z m 25.507941,-0.11166 c -0.03268,-0.0417 -0.03175,-0.0426 0.0099,-0.01 0.02529,0.0198 0.04598,0.0405 0.04598,0.046 0,0.0216 -0.02157,0.008 -0.0559,-0.0361 z M 22.19659,30.431651 c 0.0013,-0.0306 0.0075,-0.0368 0.01587,-0.0159 0.0076,0.019 0.0067,0.0416 -0.0021,0.0503 -0.0087,0.009 -0.01494,-0.007 -0.0138,-0.0345 z m -3.75707,-0.18391 c 0.0013,-0.0306 0.0075,-0.0368 0.01587,-0.0159 0.0076,0.019 0.0067,0.0416 -0.0021,0.0504 -0.0087,0.009 -0.01494,-0.007 -0.0138,-0.0345 z m -7.855693,-0.21019 c 0.001,-0.0306 0.007,-0.0368 0.0159,-0.0159 0.008,0.019 0.007,0.0416 -0.002,0.0503 -0.009,0.009 -0.0149,-0.007 -0.0138,-0.0345 z m 8.548832,-1.18011 c 5e-6,-0.66471 0.0034,-0.93287 0.0076,-0.59591 0.0042,0.33696 0.0042,0.88082 -1.1e-5,1.20857 -0.0042,0.32775 -0.0076,0.0521 -0.0076,-0.61266 z m 12.601109,1.15384 c 0.0013,-0.0306 0.0075,-0.0368 0.01587,-0.0159 0.0076,0.019 0.0067,0.0416 -0.0021,0.0504 -0.0087,0.009 -0.01494,-0.007 -0.0138,-0.0345 z m 6.967485,-0.22114 c 0,-0.065 0.0051,-0.0916 0.01139,-0.0591 0.0063,0.0325 0.0063,0.0857 0,0.11823 -0.0063,0.0325 -0.01139,0.006 -0.01139,-0.0591 z m -23.227556,0.0131 c 5.3e-4,-0.0433 0.006,-0.0579 0.0131,-0.0323 0.007,0.0256 0.006,0.061 -9.7e-4,0.0788 -0.007,0.0178 -0.0126,-0.003 -0.0121,-0.0465 z m 27.746908,-0.15764 c 1.64e-4,-0.0723 0.0053,-0.0987 0.01134,-0.0588 0.006,0.0399 0.0059,0.0991 -3.29e-4,0.13136 -0.0062,0.0323 -0.01118,-3.2e-4 -0.01098,-0.0726 z m -11.486837,-0.081 c 0.0013,-0.0306 0.0075,-0.0368 0.01587,-0.0159 0.0076,0.019 0.0067,0.0416 -0.0021,0.0504 -0.0087,0.009 -0.01494,-0.007 -0.0138,-0.0345 z m -21.149941,-0.0263 c 0.001,-0.0306 0.007,-0.0368 0.0159,-0.0159 0.008,0.019 0.007,0.0416 -0.002,0.0503 -0.009,0.009 -0.0149,-0.007 -0.0138,-0.0345 z m 16.317744,-0.40505 c 0,-0.0361 0.006,-0.0509 0.01325,-0.0328 0.0073,0.0181 0.0073,0.0476 0,0.0657 -0.0073,0.0181 -0.01325,0.003 -0.01325,-0.0328 z m -12.642984,-0.67653 -0.0905,-0.0985 0.0985,0.0906 c 0.0542,0.0498 0.0985,0.0941 0.0985,0.0985 0,0.0201 -0.0222,0.001 -0.10651,-0.0905 z m 27.887942,-0.0131 -0.05005,-0.0591 0.05912,0.05 c 0.05555,0.047 0.07108,0.0682 0.05005,0.0682 -0.005,0 -0.03159,-0.0266 -0.05911,-0.0591 z m -14.986375,0.0246 c 0,-0.005 0.03843,-0.0429 0.08539,-0.0854 l 0.08539,-0.0772 -0.07717,0.0854 c -0.07193,0.0796 -0.09361,0.0975 -0.09361,0.0772 z m 14.855009,-0.15598 -0.05005,-0.0591 0.05912,0.05 c 0.05555,0.047 0.07108,0.0682 0.05005,0.0682 -0.005,0 -0.03159,-0.0266 -0.05911,-0.0591 z m -34.2162956,-0.035 c 0.001,-0.0306 0.007,-0.0368 0.0159,-0.0159 0.008,0.019 0.007,0.0416 -0.002,0.0504 -0.009,0.009 -0.0149,-0.007 -0.0138,-0.0345 z m 27.9755506,-0.16202 c -0.03268,-0.0417 -0.03175,-0.0426 0.0099,-0.01 0.04377,0.0343 0.05768,0.0559 0.03606,0.0559 -0.0055,0 -0.02615,-0.0207 -0.04598,-0.046 z m -28.1246206,-0.11823 -0.05,-0.0591 0.0591,0.05 c 0.0555,0.047 0.0711,0.0682 0.05,0.0682 -0.005,0 -0.0316,-0.0266 -0.0591,-0.0591 z m 31.6748566,0.0509 c 0,-0.005 0.03842,-0.043 0.08539,-0.0854 l 0.08539,-0.0772 -0.07717,0.0854 c -0.07193,0.0796 -0.09361,0.0975 -0.09361,0.0772 z m -10.699768,-0.0617 c 0.01806,-0.007 0.04762,-0.007 0.06568,0 0.01806,0.007 0.0033,0.0132 -0.03284,0.0132 -0.03613,0 -0.05091,-0.006 -0.03284,-0.0132 z m -22.7652486,-0.0271 c 0.0256,-0.007 0.061,-0.006 0.0788,9.8e-4 0.0178,0.007 -0.003,0.0127 -0.0465,0.0121 -0.0434,-5.7e-4 -0.0579,-0.006 -0.0324,-0.0131 z m 0.23646,0 c 0.0256,-0.007 0.061,-0.006 0.0788,9.8e-4 0.0178,0.007 -0.003,0.0127 -0.0465,0.0121 -0.0434,-5.7e-4 -0.0579,-0.006 -0.0323,-0.0131 z m 34.7721076,8.3e-4 c 0.01806,-0.007 0.04762,-0.007 0.06568,0 0.01806,0.007 0.0033,0.0133 -0.03284,0.0133 -0.03613,0 -0.05091,-0.006 -0.03284,-0.0133 z m 0.223823,-8.3e-4 c 0.02556,-0.007 0.06103,-0.006 0.07882,9.8e-4 0.01779,0.007 -0.0031,0.0127 -0.04648,0.0121 -0.04335,-5.7e-4 -0.0579,-0.006 -0.03234,-0.0131 z m -14.089513,-0.0163 c 0,-0.005 0.03842,-0.0429 0.08539,-0.0854 l 0.08539,-0.0772 -0.07717,0.0854 c -0.07193,0.0796 -0.09361,0.0975 -0.09361,0.0772 z m -15.606288,-0.028 c 0,-0.005 0.0207,-0.0262 0.046,-0.046 0.0417,-0.0327 0.0426,-0.0318 0.01,0.01 -0.0343,0.0438 -0.0559,0.0577 -0.0559,0.0361 z m 24.115459,-0.0623 c -0.03268,-0.0417 -0.03175,-0.0426 0.0099,-0.01 0.04377,0.0343 0.05768,0.0559 0.03606,0.0559 -0.0055,0 -0.02615,-0.0207 -0.04598,-0.046 z m -30.9070886,-0.0328 c 0.0262,-0.0289 0.0535,-0.0525 0.0607,-0.0525 0.007,0 -0.008,0.0236 -0.0344,0.0525 -0.0262,0.0289 -0.0535,0.0525 -0.0607,0.0525 -0.007,0 0.008,-0.0236 0.0344,-0.0525 z m 2.87356,0.007 c -0.0327,-0.0417 -0.0318,-0.0426 0.01,-0.01 0.0253,0.0198 0.046,0.0405 0.046,0.046 0,0.0216 -0.0216,0.008 -0.0559,-0.0361 z m 11.0118346,-0.30549 c 0,-0.005 0.02069,-0.0262 0.04598,-0.046 0.04167,-0.0327 0.0426,-0.0317 0.0099,0.01 -0.03432,0.0438 -0.0559,0.0577 -0.0559,0.0361 z m 8.298985,-0.0623 c -0.03268,-0.0417 -0.03175,-0.0426 0.0099,-0.01 0.04376,0.0343 0.05768,0.0559 0.03606,0.0559 -0.0055,0 -0.02615,-0.0207 -0.04598,-0.046 z M 5.9773674,27.328691 c 0.0325,-0.006 0.0857,-0.006 0.11823,0 0.0325,0.006 0.006,0.0114 -0.0591,0.0114 -0.065,0 -0.0916,-0.005 -0.0591,-0.0114 z m 6.9886796,0 c 0.0325,-0.006 0.0857,-0.006 0.11823,0 0.0325,0.006 0.006,0.0114 -0.0591,0.0114 -0.065,0 -0.0916,-0.005 -0.0591,-0.0114 z m 15.24011,5.8e-4 c 0.01897,-0.008 0.04163,-0.007 0.05036,0.002 0.0087,0.009 -0.0068,0.0149 -0.03448,0.0138 -0.03061,-0.001 -0.03683,-0.007 -0.01587,-0.0159 z m 0.339909,5.7e-4 c 0.01806,-0.007 0.04762,-0.007 0.06568,0 0.01806,0.007 0.0033,0.0133 -0.03284,0.0133 -0.03613,0 -0.0509,-0.006 -0.03284,-0.0133 z m 5.465136,-10e-4 c 0.03268,-0.006 0.07997,-0.006 0.105093,4.9e-4 0.02512,0.007 -0.0016,0.0117 -0.05942,0.0114 -0.0578,-3.3e-4 -0.07835,-0.006 -0.04567,-0.012 z m 6.962403,0 c 0.03268,-0.006 0.07997,-0.006 0.105093,4.9e-4 0.02512,0.007 -0.0016,0.0117 -0.05942,0.0114 -0.0578,-3.3e-4 -0.07835,-0.006 -0.04567,-0.012 z m 0.710712,-1.20793 c 0.01897,-0.008 0.04163,-0.007 0.05036,0.002 0.0087,0.009 -0.0068,0.0149 -0.03448,0.0138 -0.03061,-10e-4 -0.03683,-0.007 -0.01587,-0.0159 z m 0.972109,0 c 0.01897,-0.008 0.04163,-0.007 0.05036,0.002 0.0087,0.009 -0.0068,0.0149 -0.03448,0.0138 -0.03061,-10e-4 -0.03683,-0.007 -0.01587,-0.0159 z m -6.86598,-2.99037 c -1e-6,-1.57508 0.0032,-2.22329 0.007,-1.44047 0.0039,0.78282 0.0039,2.07152 10e-7,2.86378 -0.0039,0.79226 -0.007,0.15177 -0.007,-1.42331 z m -18.509019,2.10186 c -0.0638,-0.065 -0.11013,-0.11823 -0.1029,-0.11823 0.007,0 0.0654,0.0532 0.12917,0.11823 0.0638,0.065 0.11012,0.11823 0.1029,0.11823 -0.007,0 -0.0653,-0.0532 -0.12917,-0.11823 z m 25.044942,-0.53145 c 0.05419,-0.006 0.142861,-0.006 0.197049,0 0.05419,0.006 0.0099,0.0103 -0.09852,0.0103 -0.108377,0 -0.152714,-0.005 -0.09852,-0.0103 z m -0.783281,-0.27643 -0.07717,-0.0854 0.08539,0.0772 c 0.07959,0.0719 0.09746,0.0936 0.07717,0.0936 -0.0045,0 -0.04295,-0.0384 -0.08539,-0.0854 z m -22.989909,-0.13137 -0.05005,-0.0591 0.05912,0.05 c 0.03251,0.0275 0.05912,0.0541 0.05912,0.0591 0,0.021 -0.02115,0.005 -0.06818,-0.05 z m -9.5215416,-0.21675 c 0.0339,-0.0361 0.0676,-0.0657 0.0748,-0.0657 0.007,0 -0.0146,0.0295 -0.0486,0.0657 -0.0339,0.0361 -0.0676,0.0657 -0.0748,0.0657 -0.007,0 0.0146,-0.0296 0.0486,-0.0657 z m 30.5315496,-0.21238 c 0.0013,-0.0306 0.0075,-0.0368 0.01587,-0.0159 0.0076,0.019 0.0067,0.0416 -0.0021,0.0504 -0.0087,0.009 -0.01494,-0.007 -0.0138,-0.0345 z m -13.174034,-0.0963 c 0.0067,-0.0108 0.903416,-0.0197 1.992706,-0.0197 1.089289,0 1.986006,0.009 1.992705,0.0197 0.0067,0.0108 -0.890019,0.0197 -1.992705,0.0197 -1.102686,0 -1.999404,-0.009 -1.992706,-0.0197 z m 13.150809,-0.24303 c 5.75e-4,-0.0434 0.0064,-0.0579 0.01309,-0.0323 0.0067,0.0256 0.0062,0.061 -9.77e-4,0.0788 -0.0072,0.0178 -0.01265,-0.003 -0.01211,-0.0465 z m -2.348364,-3.39406 c 0.01897,-0.008 0.04163,-0.007 0.05036,0.002 0.0087,0.009 -0.0068,0.0149 -0.03448,0.0138 -0.03061,-0.001 -0.03683,-0.007 -0.01587,-0.0159 z m -15.154722,-0.54692 c -0.06382,-0.065 -0.110121,-0.11823 -0.102896,-0.11823 0.0072,0 0.06535,0.0532 0.12917,0.11823 0.06382,0.065 0.110121,0.11823 0.102896,0.11823 -0.0072,0 -0.06535,-0.0532 -0.12917,-0.11823 z m 14.051246,-0.87183 c 0.01897,-0.008 0.04163,-0.007 0.05036,0.002 0.0087,0.009 -0.0068,0.0149 -0.03448,0.0138 -0.03061,-0.001 -0.03683,-0.007 -0.01587,-0.0159 z m 0.353547,-0.0265 c 0.02556,-0.007 0.06103,-0.006 0.07882,9.8e-4 0.01779,0.007 -0.0031,0.0126 -0.04648,0.0121 -0.04335,-5e-4 -0.0579,-0.006 -0.03234,-0.0131 z m 0.69574,8.2e-4 c 0.01806,-0.007 0.04762,-0.007 0.06568,0 0.01806,0.007 0.0033,0.0133 -0.03284,0.0133 -0.03613,0 -0.05091,-0.006 -0.03284,-0.0133 z m -8.729277,-2.16328 -0.840743,-0.0142 0.832624,-0.006 c 0.533325,-0.004 0.838461,0.003 0.848862,0.0203 0.0089,0.0145 0.01258,0.0236 0.0081,0.0203 -0.0045,-0.003 -0.386453,-0.0124 -0.848861,-0.0203 z"
     id="path7" /><path
     style="fill:#9bd1e4;stroke-width:1"
     d="m 19.31153,26.146191 c 0.02556,-0.007 0.06103,-0.006 0.07882,9.8e-4 0.01779,0.007 -0.0031,0.0127 -0.04648,0.0121 -0.04335,-5.7e-4 -0.0579,-0.006 -0.03234,-0.0131 z m 0.65683,0 c 0.02556,-0.007 0.06103,-0.006 0.07882,9.8e-4 0.01779,0.007 -0.0031,0.0127 -0.04648,0.0121 -0.04335,-5.7e-4 -0.0579,-0.006 -0.03234,-0.0131 z m -0.87901,-0.026 c 0.01897,-0.008 0.04163,-0.007 0.05036,0.002 0.0087,0.009 -0.0068,0.0149 -0.03448,0.0138 -0.03061,-0.001 -0.03683,-0.007 -0.01587,-0.0159 z m 1.129748,0 c 0.01897,-0.008 0.04163,-0.007 0.05036,0.002 0.0087,0.009 -0.0068,0.0149 -0.03448,0.0138 -0.03061,-0.001 -0.03683,-0.007 -0.01587,-0.0159 z m -14.1629106,-0.0538 c 0.0614,-0.006 0.16191,-0.006 0.22333,0 0.0614,0.006 0.0112,0.0101 -0.11166,0.0101 -0.12283,0 -0.17308,-0.005 -0.11167,-0.0101 z m 1.20904,1.7e-4 c 0.0472,-0.006 0.11816,-0.006 0.15764,2.4e-4 0.0395,0.006 8.5e-4,0.0108 -0.0859,0.0106 -0.0867,-1.7e-4 -0.119,-0.005 -0.0718,-0.0109 z m -1.81332,-0.0258 c 0.0325,-0.006 0.0857,-0.006 0.11823,0 0.0325,0.006 0.006,0.0114 -0.0591,0.0114 -0.065,0 -0.0916,-0.005 -0.0591,-0.0114 z m 2.29941,3.3e-4 c 0.0256,-0.007 0.061,-0.006 0.0788,9.8e-4 0.0178,0.007 -0.003,0.0127 -0.0465,0.0121 -0.0433,-5.7e-4 -0.0579,-0.006 -0.0323,-0.0131 z m -2.6536,-0.0263 c 0.0256,-0.007 0.061,-0.006 0.0788,9.8e-4 0.0178,0.007 -0.003,0.0126 -0.0465,0.0121 -0.0434,-5.8e-4 -0.0579,-0.006 -0.0323,-0.0131 z m 2.93061,2.5e-4 c 0.019,-0.008 0.0416,-0.007 0.0504,0.002 0.009,0.009 -0.007,0.0149 -0.0345,0.0138 -0.0306,-10e-4 -0.0368,-0.007 -0.0159,-0.0159 z m -3.20698,-0.0257 c 0.0181,-0.007 0.0476,-0.007 0.0657,0 0.0181,0.007 0.003,0.0132 -0.0328,0.0132 -0.0361,0 -0.0509,-0.006 -0.0328,-0.0132 z m 3.41716,-5.8e-4 c 0.019,-0.008 0.0416,-0.007 0.0504,0.002 0.009,0.009 -0.007,0.0149 -0.0345,0.0138 -0.0306,-10e-4 -0.0368,-0.007 -0.0159,-0.0159 z m -3.59943,-0.0263 c 0.019,-0.008 0.0416,-0.007 0.0504,0.002 0.009,0.009 -0.007,0.0149 -0.0345,0.0138 -0.0306,-0.001 -0.0368,-0.007 -0.0159,-0.0159 z m 9.8964196,-3.55513 c 0,-1.97246 0.003,-2.77938 0.007,-1.79315 0.004,0.98623 0.004,2.60007 0,3.5863 -0.004,0.98623 -0.007,0.17931 -0.007,-1.79315 z M 4.0000174,21.251311 c 0,-2.53602 0.003,-3.57349 0.007,-2.30548 0.004,1.26801 0.004,3.34294 0,4.61095 -0.004,1.26801 -0.007,0.23055 -0.007,-2.30547 z m 18.1419516,3.87851 c 0,-0.005 0.02069,-0.0261 0.04598,-0.046 0.04167,-0.0327 0.0426,-0.0317 0.0099,0.01 -0.03432,0.0438 -0.0559,0.0577 -0.0559,0.0361 z m -2.55507,-0.40318 c 0.04696,-0.006 0.123812,-0.006 0.170776,0 0.04696,0.006 0.0085,0.0106 -0.08539,0.0106 -0.09393,0 -0.132352,-0.005 -0.08539,-0.0106 z m -12.8476016,-0.0792 c 0.0759,-0.005 0.2,-0.005 0.27587,0 0.0759,0.005 0.0138,0.01 -0.13794,0.01 -0.15173,0 -0.2138,-0.004 -0.13793,-0.01 z m -0.68311,-0.0254 c 0.0325,-0.006 0.0857,-0.006 0.11823,0 0.0325,0.006 0.006,0.0114 -0.0591,0.0114 -0.065,0 -0.0916,-0.005 -0.0591,-0.0114 z m 1.40612,3.3e-4 c 0.0256,-0.007 0.061,-0.006 0.0788,9.8e-4 0.0178,0.007 -0.003,0.0126 -0.0465,0.0121 -0.0434,-5.8e-4 -0.0579,-0.006 -0.0323,-0.0131 z m -1.74767,-0.0255 c 0.0181,-0.007 0.0476,-0.007 0.0657,0 0.0181,0.007 0.003,0.0133 -0.0329,0.0133 -0.0361,0 -0.0509,-0.006 -0.0328,-0.0133 z m 2.02468,-5.7e-4 c 0.019,-0.008 0.0416,-0.007 0.0504,0.002 0.009,0.009 -0.007,0.0149 -0.0345,0.0138 -0.0306,-10e-4 -0.0368,-0.007 -0.0159,-0.0159 z m 12.9576246,-0.22673 c 0,-0.005 0.03843,-0.0429 0.08539,-0.0854 l 0.08539,-0.0772 -0.07717,0.0854 c -0.07193,0.0796 -0.09361,0.0975 -0.09361,0.0772 z m -9.561375,-0.76903 c 10e-4,-0.0306 0.007,-0.0368 0.0159,-0.0159 0.008,0.019 0.007,0.0416 -0.002,0.0504 -0.009,0.009 -0.0149,-0.007 -0.0138,-0.0345 z m 0.0334,-0.43132 c 0,-0.12283 0.005,-0.17307 0.0101,-0.11166 0.006,0.0614 0.006,0.16191 0,0.22332 -0.006,0.0614 -0.0101,0.0112 -0.0101,-0.11166 z m -1.7610796,-0.0262 c 0,-0.0939 0.005,-0.13235 0.0106,-0.0854 0.006,0.047 0.006,0.12381 0,0.17078 -0.006,0.047 -0.0106,0.009 -0.0106,-0.0854 z m 13.6294656,-0.0416 c 0.0013,-0.0306 0.0075,-0.0368 0.01587,-0.0159 0.0076,0.019 0.0067,0.0416 -0.0021,0.0503 -0.0087,0.009 -0.01494,-0.007 -0.0138,-0.0345 z m -1.681486,-0.13137 c 0.0013,-0.0306 0.0075,-0.0368 0.01587,-0.0159 0.0076,0.019 0.0067,0.0416 -0.0021,0.0504 -0.0087,0.009 -0.01494,-0.007 -0.0138,-0.0345 z m -5.09396,-0.0766 c 5.4e-4,-0.0433 0.006,-0.0579 0.0131,-0.0323 0.007,0.0256 0.006,0.061 -9.8e-4,0.0788 -0.007,0.0178 -0.0126,-0.003 -0.0121,-0.0465 z m 6.804766,-0.0263 c 5.75e-4,-0.0433 0.0064,-0.0579 0.01309,-0.0323 0.0067,0.0256 0.0062,0.061 -9.77e-4,0.0788 -0.0072,0.0178 -0.01265,-0.003 -0.01211,-0.0465 z m -11.931086,-0.10728 c 0.001,-0.0306 0.007,-0.0368 0.0159,-0.0159 0.008,0.019 0.007,0.0416 -0.002,0.0504 -0.009,0.009 -0.0149,-0.007 -0.0138,-0.0345 z m 6.80878,-0.0372 c 0,-0.0506 0.005,-0.0713 0.012,-0.046 0.007,0.0253 0.007,0.0667 0,0.092 -0.007,0.0253 -0.012,0.005 -0.012,-0.046 z m 3.441794,-0.0263 c 0,-0.0506 0.0054,-0.0713 0.01202,-0.046 0.0066,0.0253 0.0066,0.0667 0,0.0919 -0.0066,0.0253 -0.01202,0.005 -0.01202,-0.046 z m -5.147024,-0.30214 c 1.1e-4,-0.10115 0.005,-0.13931 0.0105,-0.0848 0.006,0.0545 0.006,0.13727 -2.1e-4,0.18391 -0.006,0.0466 -0.0105,0.002 -0.0103,-0.0991 z m 6.855844,0.0131 c 0,-0.065 0.0051,-0.0916 0.01139,-0.0591 0.0063,0.0325 0.0063,0.0857 0,0.11823 -0.0063,0.0325 -0.01139,0.006 -0.01139,-0.0591 z m -14.0264136,-0.19048 -0.05,-0.0591 0.0591,0.05 c 0.0556,0.047 0.0711,0.0682 0.05,0.0682 -0.005,0 -0.0316,-0.0266 -0.0591,-0.0591 z m 12.3181246,-0.11166 c 2.95e-4,-0.0578 0.0057,-0.0784 0.01196,-0.0457 0.0063,0.0327 0.006,0.08 -5.34e-4,0.10509 -0.0066,0.0251 -0.01172,-0.002 -0.01143,-0.0594 z m -3.442325,-0.0394 c 0,-0.0506 0.005,-0.0713 0.012,-0.046 0.007,0.0253 0.007,0.0667 0,0.092 -0.007,0.0253 -0.012,0.005 -0.012,-0.046 z m 5.122306,-0.1445 c 5.75e-4,-0.0434 0.0064,-0.0579 0.01309,-0.0324 0.0067,0.0256 0.0062,0.061 -9.77e-4,0.0788 -0.0072,0.0178 -0.01265,-0.003 -0.01211,-0.0465 z m -6.805736,-0.0131 c 0,-0.0361 0.006,-0.0509 0.0132,-0.0328 0.007,0.0181 0.007,0.0476 0,0.0657 -0.007,0.0181 -0.0132,0.003 -0.0132,-0.0328 z m 5.09493,-0.0679 c 0.0013,-0.0306 0.0075,-0.0368 0.01587,-0.0159 0.0076,0.019 0.0067,0.0416 -0.0021,0.0504 -0.0087,0.009 -0.01494,-0.007 -0.0138,-0.0345 z m -3.38925,-0.0263 c 0.001,-0.0306 0.007,-0.0368 0.0159,-0.0159 0.008,0.019 0.007,0.0416 -0.002,0.0504 -0.009,0.009 -0.0149,-0.007 -0.0138,-0.0345 z m -10.0696396,-0.0552 c 0.019,-0.008 0.0416,-0.007 0.0504,0.002 0.009,0.009 -0.007,0.0149 -0.0345,0.0138 -0.0306,-0.001 -0.0368,-0.007 -0.0159,-0.0159 z m -0.25074,-0.0265 c 0.0256,-0.007 0.061,-0.006 0.0788,9.8e-4 0.0178,0.007 -0.003,0.0127 -0.0465,0.0121 -0.0434,-5.7e-4 -0.0579,-0.006 -0.0324,-0.0131 z m 8.6388996,-0.0497 c 0.001,-0.0306 0.007,-0.0368 0.0159,-0.0159 0.008,0.019 0.007,0.0416 -0.002,0.0504 -0.009,0.009 -0.0149,-0.007 -0.0138,-0.0345 z m 2.231148,-1.12435 c 0,-0.005 0.02069,-0.0261 0.04598,-0.046 0.04167,-0.0327 0.0426,-0.0317 0.0099,0.01 -0.03432,0.0438 -0.0559,0.0577 -0.0559,0.036 z M 6.0299374,20.364611 c 0.19147,-0.004 0.50478,-0.004 0.69624,0 0.19147,0.005 0.0348,0.008 -0.34812,0.008 -0.38293,0 -0.53959,-0.004 -0.34812,-0.008 z m 1.35357,-0.0248 c 0.0256,-0.007 0.061,-0.006 0.0788,9.8e-4 0.0178,0.007 -0.003,0.0127 -0.0465,0.0121 -0.0434,-5.7e-4 -0.0579,-0.006 -0.0323,-0.0131 z m 12.0474136,-0.2362 c 0.01897,-0.008 0.04163,-0.007 0.05036,0.002 0.0087,0.009 -0.0068,0.0149 -0.03448,0.0138 -0.03061,-0.001 -0.03683,-0.007 -0.01587,-0.0159 z m 0.446645,0 c 0.01897,-0.008 0.04163,-0.007 0.05036,0.002 0.0087,0.009 -0.0068,0.0149 -0.03448,0.0138 -0.03061,-0.001 -0.03683,-0.007 -0.01587,-0.0159 z M 8.9811774,19.265491 c 10e-4,-0.0306 0.007,-0.0368 0.0159,-0.0159 0.008,0.019 0.007,0.0416 -0.002,0.0503 -0.009,0.009 -0.0149,-0.007 -0.0138,-0.0345 z m 1.7117796,-0.0898 c 0,-0.0506 0.005,-0.0713 0.012,-0.046 0.007,0.0253 0.007,0.0667 0,0.0919 -0.007,0.0253 -0.012,0.005 -0.012,-0.046 z m -1.7096996,-0.26273 c 0,-0.0361 0.006,-0.0509 0.0132,-0.0328 0.007,0.0181 0.007,0.0476 0,0.0657 -0.007,0.0181 -0.0132,0.003 -0.0132,-0.0328 z m 1.7102296,-0.1445 c 3e-4,-0.0578 0.006,-0.0784 0.012,-0.0457 0.006,0.0327 0.006,0.08 -5.3e-4,0.10509 -0.007,0.0251 -0.0117,-0.002 -0.0114,-0.0594 z m 8.47306,-0.0831 c 0.01806,-0.007 0.04762,-0.007 0.06568,0 0.01806,0.007 0.0033,0.0132 -0.03284,0.0132 -0.03613,0 -0.05091,-0.006 -0.03284,-0.0132 z m 0.945836,0 c 0.01806,-0.007 0.04762,-0.007 0.06568,0 0.01806,0.007 0.0033,0.0132 -0.03284,0.0132 -0.03613,0 -0.05091,-0.006 -0.03284,-0.0132 z m -0.578011,-0.0283 c 0.07586,-0.005 0.200005,-0.005 0.275869,0 0.07586,0.005 0.01379,0.01 -0.137934,0.01 -0.151728,0 -0.213799,-0.004 -0.137935,-0.01 z M 5.7409374,17.870841 c 0.0181,-0.007 0.0476,-0.007 0.0657,0 0.0181,0.007 0.003,0.0133 -0.0328,0.0133 -0.0361,0 -0.0509,-0.006 -0.0328,-0.0133 z m 1.84076,-5.8e-4 c 0.019,-0.008 0.0416,-0.007 0.0504,0.002 0.009,0.009 -0.007,0.0149 -0.0345,0.0138 -0.0306,-0.001 -0.0368,-0.007 -0.0159,-0.0159 z m -1.52549,-0.0269 c 0.0325,-0.006 0.0857,-0.006 0.11823,0 0.0325,0.006 0.006,0.0114 -0.0591,0.0114 -0.065,0 -0.0916,-0.005 -0.0591,-0.0114 z m 1.27476,3.3e-4 c 0.0256,-0.007 0.061,-0.006 0.0788,9.8e-4 0.0178,0.007 -0.003,0.0127 -0.0465,0.0121 -0.0434,-5.7e-4 -0.0579,-0.006 -0.0323,-0.0131 z m 7.0998296,-0.37589 c 0.0262,-0.0289 0.0535,-0.0525 0.0607,-0.0525 0.007,0 -0.008,0.0236 -0.0344,0.0525 -0.0262,0.0289 -0.0535,0.0525 -0.0607,0.0525 -0.007,0 0.008,-0.0236 0.0344,-0.0525 z m -4.34963,-0.0985 -0.0905,-0.0985 0.0985,0.0905 c 0.0542,0.0498 0.0985,0.0941 0.0985,0.0985 0,0.0201 -0.0222,0.001 -0.10651,-0.0905 z m 2.60454,-0.46854 c 10e-4,-0.0306 0.007,-0.0368 0.0159,-0.0159 0.008,0.019 0.007,0.0416 -0.002,0.0504 -0.009,0.009 -0.0149,-0.007 -0.0138,-0.0345 z m 2.02848,-0.15545 c 1.9e-4,-0.0722 0.005,-0.0987 0.0113,-0.0588 0.006,0.0399 0.006,0.0991 -3.6e-4,0.13137 -0.006,0.0323 -0.0112,-3.3e-4 -0.011,-0.0726 z M 4.2187274,16.609131 c 0.019,-0.008 0.0416,-0.007 0.0504,0.002 0.009,0.009 -0.007,0.0149 -0.0345,0.0138 -0.0306,-0.001 -0.0368,-0.007 -0.0159,-0.0159 z m 8.4669796,-0.0237 c 10e-4,-0.0306 0.007,-0.0368 0.0159,-0.0159 0.008,0.019 0.007,0.0416 -0.002,0.0504 -0.009,0.009 -0.0149,-0.007 -0.0138,-0.0345 z m -8.1254296,-0.0289 c 0.019,-0.008 0.0416,-0.007 0.0504,0.002 0.009,0.009 -0.007,0.0149 -0.0345,0.0138 -0.0306,-10e-4 -0.0368,-0.007 -0.0159,-0.0159 z m 0.18227,-0.0257 c 0.0181,-0.007 0.0476,-0.007 0.0657,0 0.0181,0.007 0.003,0.0133 -0.0328,0.0133 -0.0361,0 -0.0509,-0.006 -0.0328,-0.0133 z m 0.23646,-0.0263 c 0.0181,-0.007 0.0476,-0.007 0.0657,0 0.0181,0.007 0.003,0.0133 -0.0328,0.0133 -0.0361,0 -0.0509,-0.006 -0.0328,-0.0133 z m 0.27637,-0.0271 c 0.0256,-0.007 0.061,-0.006 0.0788,9.7e-4 0.0178,0.007 -0.003,0.0126 -0.0465,0.0121 -0.0434,-5.7e-4 -0.0579,-0.006 -0.0323,-0.0131 z m 2.50859,8.2e-4 c 0.0181,-0.007 0.0476,-0.007 0.0657,0 0.0181,0.007 0.003,0.0132 -0.0328,0.0132 -0.0361,0 -0.0509,-0.006 -0.0328,-0.0132 z m -2.1544,-0.0274 c 0.0325,-0.006 0.0857,-0.006 0.11823,0 0.0325,0.006 0.006,0.0114 -0.0591,0.0114 -0.065,0 -0.0916,-0.005 -0.0591,-0.0114 z m 1.87903,3.3e-4 c 0.0256,-0.007 0.061,-0.006 0.0788,9.8e-4 0.0178,0.007 -0.003,0.0126 -0.0465,0.0121 -0.0434,-5.8e-4 -0.0579,-0.006 -0.0324,-0.0131 z m -1.1317,-0.0277 c 0.15454,-0.005 0.41464,-0.005 0.57801,-3e-5 0.16337,0.005 0.0369,0.008 -0.28098,0.008 -0.31791,2e-5 -0.45157,-0.004 -0.29703,-0.008 z m 8.0714096,-0.40734 -0.05,-0.0591 0.0591,0.05 c 0.0325,0.0275 0.0591,0.0541 0.0591,0.0591 0,0.021 -0.0212,0.006 -0.0682,-0.05 z"
     id="path6" /><path
     style="fill:#76c1db;stroke-width:1"
     d="m 17.461987,25.382771 c -0.0327,-0.0417 -0.0318,-0.0426 0.01,-0.01 0.0253,0.0198 0.046,0.0405 0.046,0.046 0,0.0216 -0.0216,0.008 -0.0559,-0.0361 z m 4.574889,-0.15107 c 0.04902,-0.0506 0.09504,-0.092 0.102265,-0.092 0.0072,0 -0.02697,0.0414 -0.07599,0.092 -0.04902,0.0506 -0.09504,0.092 -0.102265,0.092 -0.0072,0 0.02697,-0.0414 0.07599,-0.092 z m -11.586489,-0.18391 c 0.0785,-0.0795 0.14862,-0.1445 0.15584,-0.1445 0.007,0 -0.0511,0.065 -0.12957,0.1445 -0.0785,0.0795 -0.14862,0.1445 -0.15584,0.1445 -0.007,0 0.0511,-0.065 0.12957,-0.1445 z m 6.67005,-0.007 c -0.0327,-0.0417 -0.0318,-0.0426 0.01,-0.01 0.0253,0.0198 0.046,0.0405 0.046,0.046 0,0.0216 -0.0216,0.008 -0.0559,-0.0361 z m 3.734144,-0.83096 c 0,-0.005 0.02069,-0.0261 0.04598,-0.046 0.04167,-0.0327 0.0426,-0.0317 0.0099,0.01 -0.03432,0.0438 -0.0559,0.0577 -0.0559,0.0361 z m -10.300514,-2.68965 -0.0905,-0.0985 0.0985,0.0906 c 0.0542,0.0498 0.0985,0.0941 0.0985,0.0985 0,0.0201 -0.0222,0.001 -0.10651,-0.0905 z m 7.883378,-0.88351 c 0,-0.005 0.02069,-0.0261 0.04598,-0.046 0.04167,-0.0327 0.0426,-0.0318 0.0099,0.01 -0.03432,0.0438 -0.0559,0.0577 -0.0559,0.036 z m 2.338317,-0.10831 c -0.06382,-0.065 -0.110122,-0.11823 -0.102897,-0.11823 0.0072,0 0.06535,0.0532 0.12917,0.11823 0.06382,0.065 0.110122,0.11823 0.102897,0.11823 -0.0072,0 -0.06535,-0.0532 -0.12917,-0.11823 z m -10.666925,-0.0788 c 0.049,-0.0506 0.095,-0.0919 0.10226,-0.0919 0.007,0 -0.027,0.0414 -0.076,0.0919 -0.049,0.0506 -0.095,0.092 -0.10226,0.092 -0.007,0 0.027,-0.0414 0.076,-0.092 z m 8.486248,0.0295 c 0,-0.005 0.02069,-0.0261 0.04598,-0.046 0.04167,-0.0327 0.0426,-0.0317 0.0099,0.01 -0.03432,0.0438 -0.0559,0.0577 -0.0559,0.036 z m 3.583798,-0.73229 -0.05005,-0.0591 0.05911,0.05 c 0.03251,0.0275 0.05912,0.0541 0.05912,0.0591 0,0.021 -0.02114,0.005 -0.06818,-0.05 z m -4.897456,-0.13794 c 0.0931,-0.0939 0.17517,-0.17077 0.18239,-0.17077 0.007,0 -0.063,0.0768 -0.15612,0.17077 -0.0931,0.0939 -0.17517,0.17078 -0.18239,0.17078 -0.007,0 0.063,-0.0768 0.15612,-0.17078 z m 4.594459,-0.16421 c -0.03268,-0.0417 -0.03175,-0.0426 0.0099,-0.01 0.04377,0.0343 0.05768,0.0559 0.03606,0.0559 -0.0055,0 -0.02615,-0.0207 -0.04598,-0.046 z m -8.931529,-1.99676 -0.0637,-0.0722 0.0722,0.0637 c 0.0397,0.035 0.0723,0.0676 0.0723,0.0722 0,0.0206 -0.0213,0.004 -0.0808,-0.0637 z m 0.002,-1.41219 c 0.0339,-0.0361 0.0676,-0.0657 0.0748,-0.0657 0.007,0 -0.0146,0.0296 -0.0486,0.0657 -0.0339,0.0361 -0.0676,0.0657 -0.0748,0.0657 -0.007,0 0.0146,-0.0296 0.0486,-0.0657 z"
     id="path5" /><path
     style="fill:#ababac;stroke-width:1"
     d="m 5.7425574,32.215571 c 0.019,-0.008 0.0416,-0.007 0.0504,0.002 0.009,0.009 -0.007,0.0149 -0.0345,0.0138 -0.0306,-0.001 -0.0368,-0.007 -0.0159,-0.0159 z m 0.57801,0 c 0.019,-0.008 0.0416,-0.007 0.0504,0.002 0.009,0.009 -0.007,0.0149 -0.0345,0.0138 -0.0306,-0.001 -0.0368,-0.007 -0.0159,-0.0159 z m 6.4106596,0 c 0.019,-0.008 0.0416,-0.007 0.0504,0.002 0.009,0.009 -0.007,0.0149 -0.0345,0.0138 -0.0306,-0.001 -0.0368,-0.007 -0.0159,-0.0159 z m 28.112347,0 c 0.01897,-0.008 0.04163,-0.007 0.05036,0.002 0.0087,0.009 -0.0068,0.0149 -0.03448,0.0138 -0.03061,-0.001 -0.03683,-0.007 -0.01587,-0.0159 z m -14.616725,-2.42547 c 0,-1.17769 0.0032,-1.65948 0.0072,-1.07063 0.0039,0.58885 0.0039,1.55242 0,2.14127 -0.0039,0.58885 -0.0072,0.10706 -0.0072,-1.07064 z m 14.746449,1.82173 c 0.01806,-0.007 0.04762,-0.007 0.06568,0 0.01806,0.007 0.0033,0.0132 -0.03284,0.0132 -0.03613,0 -0.0509,-0.006 -0.03284,-0.0132 z m 0.290648,-5.8e-4 c 0.01897,-0.008 0.04163,-0.007 0.05036,0.002 0.0087,0.009 -0.0068,0.0149 -0.03448,0.0138 -0.03061,-0.001 -0.03683,-0.007 -0.01587,-0.0159 z m -20.729569,-0.0263 c 0.01897,-0.008 0.04163,-0.007 0.05036,0.002 0.0087,0.009 -0.0068,0.0149 -0.03448,0.0138 -0.03061,-10e-4 -0.03683,-0.007 -0.01587,-0.0159 z m 0.289005,0 c 0.01897,-0.008 0.04163,-0.007 0.05036,0.002 0.0087,0.009 -0.0068,0.0149 -0.03448,0.0138 -0.03061,-10e-4 -0.03683,-0.007 -0.01587,-0.0159 z M 4.0943474,31.324841 c 10e-4,-0.0306 0.007,-0.0368 0.0159,-0.0159 0.008,0.019 0.007,0.0416 -0.002,0.0503 -0.009,0.009 -0.0149,-0.007 -0.0138,-0.0345 z m 14.3552646,-2.38865 c 5e-6,-0.70806 0.0034,-0.99394 0.0075,-0.6353 0.0041,0.35865 0.0041,0.93797 -9e-6,1.28739 -0.0041,0.34942 -0.0075,0.056 -0.0075,-0.65209 z m 0.676059,1.1823 c 5.34e-4,-0.0434 0.0064,-0.0579 0.01309,-0.0323 0.0067,0.0256 0.0062,0.061 -9.74e-4,0.0788 -0.0072,0.0178 -0.01265,-0.003 -0.01211,-0.0465 z m 20.247766,-0.0987 c 0.01094,-0.0109 0.823184,-0.0168 1.804978,-0.0131 l 1.78508,0.007 -1.804977,0.0131 c -0.992738,0.007 -1.796023,0.004 -1.785081,-0.007 z m -28.78754,-0.0721 c 0,-0.0361 0.006,-0.0509 0.0133,-0.0328 0.007,0.0181 0.007,0.0476 0,0.0657 -0.007,0.0181 -0.0133,0.003 -0.0133,-0.0328 z m 21.15463,-0.15764 c 0,-0.10837 0.0046,-0.15271 0.01031,-0.0985 0.0057,0.0542 0.0057,0.14286 0,0.19705 -0.0057,0.0542 -0.01031,0.01 -0.01031,-0.0985 z m -16.94719,0 c 0,-0.0795 0.005,-0.11199 0.0109,-0.0722 0.006,0.0397 0.006,0.10477 0,0.14451 -0.006,0.0397 -0.0109,0.007 -0.0109,-0.0723 z m -3.55061,0 c 0,-0.0361 0.006,-0.0509 0.0133,-0.0328 0.007,0.0181 0.007,0.0476 0,0.0657 -0.007,0.0181 -0.0133,0.003 -0.0133,-0.0328 z m -0.65683,-0.15764 c 0,-0.0361 0.006,-0.0509 0.0133,-0.0328 0.007,0.0181 0.007,0.0476 0,0.0657 -0.007,0.0181 -0.0133,0.003 -0.0133,-0.0328 z m -6.3076396,-0.85606 c 10e-4,-0.0306 0.007,-0.0368 0.0159,-0.0159 0.008,0.019 0.007,0.0416 -0.002,0.0504 -0.009,0.009 -0.0149,-0.007 -0.0138,-0.0345 z m 31.2827586,-0.10717 c 0.01806,-0.007 0.04762,-0.007 0.06568,0 0.01806,0.007 0.0033,0.0133 -0.03284,0.0133 -0.03612,0 -0.0509,-0.006 -0.03284,-0.0133 z M 4.2782574,28.566161 c 10e-4,-0.0306 0.007,-0.0368 0.0159,-0.0159 0.008,0.019 0.007,0.0416 -0.002,0.0504 -0.009,0.009 -0.0149,-0.007 -0.0138,-0.0345 z m 24.4517216,-0.58008 c 0.01806,-0.007 0.04762,-0.007 0.06568,0 0.01806,0.007 0.0033,0.0132 -0.03284,0.0132 -0.03612,0 -0.0509,-0.006 -0.03284,-0.0132 z m -15.763462,-0.0279 c 0.0472,-0.006 0.11816,-0.006 0.15764,2.5e-4 0.0395,0.006 8.4e-4,0.0108 -0.0859,0.0106 -0.0867,-1.6e-4 -0.119,-0.005 -0.0718,-0.0109 z m 21.018576,0 c 0.04722,-0.006 0.11816,-0.006 0.157639,2.5e-4 0.03948,0.006 8.46e-4,0.0108 -0.08586,0.0106 -0.0867,-1.6e-4 -0.119003,-0.005 -0.07178,-0.0109 z m -4.796779,-0.25683 c 5.74e-4,-0.0433 0.0064,-0.0579 0.01309,-0.0323 0.0067,0.0256 0.0062,0.061 -9.77e-4,0.0788 -0.0072,0.0178 -0.01265,-0.003 -0.01211,-0.0465 z m -10.442158,-0.31954 c 0.01806,-0.007 0.04762,-0.007 0.06568,0 0.01806,0.007 0.0033,0.0133 -0.03284,0.0133 -0.03612,0 -0.0509,-0.006 -0.03284,-0.0133 z m 3.783343,0 c 0.01806,-0.007 0.04762,-0.007 0.06568,0 0.01806,0.007 0.0033,0.0133 -0.03284,0.0133 -0.03613,0 -0.05091,-0.006 -0.03284,-0.0133 z m 4.007166,-8.2e-4 c 0.02556,-0.007 0.06103,-0.006 0.07882,9.8e-4 0.01779,0.007 -0.0031,0.0126 -0.04648,0.0121 -0.04335,-5.8e-4 -0.05791,-0.006 -0.03234,-0.0131 z m 1.786079,-0.0531 c 0.03974,-0.006 0.104764,-0.006 0.144503,0 0.03974,0.006 0.0072,0.0109 -0.07225,0.0109 -0.07948,0 -0.111989,-0.005 -0.07225,-0.0109 z m 14.254863,-1.2077 c 0.01897,-0.008 0.04163,-0.007 0.05036,0.002 0.0087,0.009 -0.0068,0.0149 -0.03448,0.0138 -0.03061,-0.001 -0.03683,-0.007 -0.01587,-0.0159 z m -0.394099,-1.41876 c 0.01897,-0.008 0.04163,-0.007 0.05036,0.002 0.0087,0.009 -0.0068,0.0149 -0.03448,0.0138 -0.03061,-0.001 -0.03683,-0.007 -0.01587,-0.0159 z m 0.445003,5.8e-4 c 0.01806,-0.007 0.04762,-0.007 0.06568,0 0.01806,0.007 0.0033,0.0132 -0.03284,0.0132 -0.03613,0 -0.05091,-0.006 -0.03284,-0.0132 z m -3.086157,-1.36197 c 1.65e-4,-0.0722 0.0053,-0.0987 0.01134,-0.0587 0.006,0.0399 0.0059,0.099 -3.28e-4,0.13136 -0.0063,0.0323 -0.01121,-3.3e-4 -0.01101,-0.0726 z m 1.660023,-1.56326 c 0,-0.85979 0.0033,-1.21152 0.0074,-0.78163 0.004,0.4299 0.004,1.13337 0,1.56326 -0.004,0.4299 -0.0074,0.0782 -0.0074,-0.78163 z m -4.432793,-1.67261 c 0.01806,-0.007 0.04762,-0.007 0.06568,0 0.01806,0.007 0.0033,0.0132 -0.03284,0.0132 -0.03612,0 -0.0509,-0.006 -0.03284,-0.0132 z m 4.432479,-2.34719 c 0,-0.59969 0.0034,-0.84501 0.0077,-0.54517 0.0042,0.29984 0.0042,0.7905 0,1.09034 -0.0042,0.29984 -0.0077,0.0545 -0.0077,-0.54517 z m -5.035121,0.95416 c 0.01897,-0.008 0.04163,-0.007 0.05036,0.002 0.0087,0.009 -0.0068,0.0149 -0.03448,0.0138 -0.03061,-0.001 -0.03683,-0.007 -0.01587,-0.0159 z m 0.431866,-0.0271 c 0.03974,-0.006 0.104764,-0.006 0.144503,0 0.03974,0.006 0.0072,0.0109 -0.07225,0.0109 -0.07948,0 -0.111989,-0.005 -0.07225,-0.0109 z m 0.420872,5.7e-4 c 0.02556,-0.007 0.06103,-0.006 0.07882,9.8e-4 0.01779,0.007 -0.0031,0.0126 -0.04648,0.0121 -0.04335,-5.7e-4 -0.0579,-0.006 -0.03234,-0.0131 z"
     id="path4" /><path
     style="fill:#6abcd9;stroke-width:1"
     d="m 19.23778,26.137071 c -1.798913,-0.20527 -2.981013,-1.69374 -2.981013,-3.75363 0,-1.30669 0.49904,-2.40784 1.39344,-3.07467 0.396185,-0.29538 0.924072,-0.513 1.444234,-0.59539 0.330953,-0.0524 1.037735,-0.0383 1.326632,0.0264 1.323089,0.29657 2.209938,1.19976 2.548361,2.59532 0.182326,0.75186 0.144879,1.76666 -0.09193,2.49134 -0.348311,1.06587 -1.070886,1.81887 -2.064956,2.15192 -0.442515,0.14826 -1.092351,0.21374 -1.574765,0.1587 z m 0.907425,-1.45902 c 0.60598,-0.18201 1.00579,-0.67294 1.185953,-1.45625 0.07419,-0.32255 0.09424,-1.05204 0.03885,-1.41332 -0.139868,-0.91228 -0.59852,-1.51216 -1.278737,-1.67249 -0.242253,-0.0571 -0.628619,-0.0521 -0.876519,0.0113 -0.274246,0.0701 -0.441053,0.16502 -0.647688,0.3684 -0.419813,0.4132 -0.628497,1.0413 -0.628497,1.89167 0,0.81821 0.189973,1.42594 0.5777,1.8481 0.226993,0.24715 0.512334,0.4021 0.85439,0.46396 0.182291,0.033 0.601665,0.0106 0.77455,-0.0413 z m -14.2593876,1.37858 c -0.62766,-0.0246 -1.16807,-0.0784 -1.57679,-0.15678 l -0.29558,-0.0567 v -4.59483 c 0,-2.52716 0.006,-4.59484 0.0122,-4.59484 0.007,0 0.20476,-0.0289 0.44007,-0.0643 0.68453,-0.10285 0.95159,-0.12199 1.91228,-0.13707 0.73116,-0.0115 0.9843,-0.006 1.30914,0.0285 1.16442,0.12362 1.9029,0.40518 2.4092796,0.91857 0.41572,0.42146 0.59424,0.89046 0.59621,1.56629 10e-4,0.40805 -0.0477,0.63631 -0.20779,0.9699 -0.10106,0.21058 -0.15447,0.28328 -0.35904,0.48871 -0.1470796,0.14769 -0.3141496,0.28473 -0.4305896,0.35319 -0.17099,0.10054 -0.21792,0.15795 -0.13003,0.1591 0.0645,8.3e-4 0.4968396,0.20904 0.6551196,0.31547 0.60503,0.40683 0.89741,0.96134 0.9315,1.7666 0.0375,0.88656 -0.19472,1.54023 -0.73134,2.05843 -0.6160896,0.59493 -1.5401696,0.89969 -2.9783896,0.98226 -0.49694,0.0285 -0.77623,0.0281 -1.55629,-0.003 z m 1.84529,-1.44574 c 0.33387,-0.0397 0.69151,-0.13572 0.92754,-0.24891 0.27663,-0.13265 0.5762,-0.42858 0.65885,-0.65084 0.14809,-0.3982 0.13413,-0.86554 -0.0363,-1.21471 -0.14741,-0.30204 -0.36439,-0.47033 -0.78819,-0.61133 -0.41187,-0.13703 -0.67815,-0.16087 -1.79652,-0.16087 h -1.00158 v 1.44502 1.44503 l 0.0985,0.003 c 0.0542,0.002 0.25814,0.0124 0.45321,0.0236 0.41966,0.0243 1.15212,0.009 1.48444,-0.0301 z m -0.0525,-4.28897 c 0.55151,-0.0974 0.85499,-0.2262 1.05911,-0.44954 0.20234,-0.22139 0.25231,-0.37423 0.25354,-0.77548 9.6e-4,-0.31384 -0.003,-0.33599 -0.0803,-0.49919 -0.10349,-0.21738 -0.25595,-0.36859 -0.48934,-0.48536 -0.42538,-0.2128 -0.80786,-0.27637 -1.66258,-0.2763 -0.3468,3e-5 -0.72809,0.008 -0.84731,0.0169 l -0.21675,0.0169 v 1.26103 1.26104 l 0.88672,-0.0164 c 0.57566,-0.0107 0.96045,-0.0295 1.09691,-0.0536 z m 5.2152296,2.08541 v -3.57316 h 0.81447 0.81447 v 3.57316 3.57316 h -0.81447 -0.81447 z m 0.5261,-4.69078 c -0.19863,-0.0557 -0.34133,-0.145 -0.48224,-0.30173 -0.1698,-0.18886 -0.23481,-0.37419 -0.23481,-0.66937 0,-0.32816 0.067,-0.49805 0.28061,-0.71168 0.21704,-0.21704 0.38433,-0.28283 0.72481,-0.28507 0.2271,-0.001 0.26528,0.006 0.42361,0.0808 0.23408,0.11091 0.37312,0.2429 0.47599,0.45186 0.081,0.16453 0.0856,0.18968 0.0856,0.46407 0,0.27497 -0.005,0.29928 -0.0865,0.4658 -0.10129,0.20575 -0.23837,0.33544 -0.47183,0.44638 -0.20448,0.0972 -0.49394,0.12101 -0.71529,0.0589 z"
     id="path3" /><path
     style="fill:#878789;stroke-width:1"
     d="m 5.8197374,32.216111 c 0.0181,-0.007 0.0476,-0.007 0.0657,0 0.0181,0.007 0.003,0.0133 -0.0328,0.0133 -0.0361,0 -0.0509,-0.006 -0.0328,-0.0133 z m 0.39409,0 c 0.0181,-0.007 0.0476,-0.007 0.0657,0 0.0181,0.007 0.003,0.0133 -0.0329,0.0133 -0.0361,0 -0.0509,-0.006 -0.0328,-0.0133 z m 6.5945796,0 c 0.0181,-0.007 0.0476,-0.007 0.0657,0 0.0181,0.007 0.003,0.0133 -0.0328,0.0133 -0.0361,0 -0.0509,-0.006 -0.0328,-0.0133 z m 0.3941,0 c 0.0181,-0.007 0.0476,-0.007 0.0657,0 0.0181,0.007 0.003,0.0133 -0.0328,0.0133 -0.0361,0 -0.0509,-0.006 -0.0328,-0.0133 z m 20.703296,0 c 0.01806,-0.007 0.04762,-0.007 0.06568,0 0.01806,0.007 0.0033,0.0133 -0.03284,0.0133 -0.03613,0 -0.05091,-0.006 -0.03284,-0.0133 z m 0.394098,0 c 0.01806,-0.007 0.04762,-0.007 0.06568,0 0.01806,0.007 0.0033,0.0133 -0.03284,0.0133 -0.03613,0 -0.0509,-0.006 -0.03284,-0.0133 z m 6.620851,0 c 0.01806,-0.007 0.04762,-0.007 0.06568,0 0.01806,0.007 0.0033,0.0133 -0.03284,0.0133 -0.03612,0 -0.0509,-0.006 -0.03284,-0.0133 z m 0.369467,-5.7e-4 c 0.01897,-0.008 0.04163,-0.007 0.05036,0.002 0.0087,0.009 -0.0068,0.0149 -0.03448,0.0138 -0.03061,-10e-4 -0.03683,-0.007 -0.01587,-0.0159 z m -18.993962,-0.1331 c -0.03268,-0.0417 -0.03175,-0.0426 0.0099,-0.01 0.02529,0.0198 0.04598,0.0405 0.04598,0.046 0,0.0216 -0.02157,0.008 -0.0559,-0.0361 z M 7.4815174,31.778651 c 0,-0.005 0.0384,-0.043 0.0854,-0.0854 l 0.0854,-0.0772 -0.0772,0.0854 c -0.0719,0.0796 -0.0936,0.0975 -0.0936,0.0772 z m 11.5587976,-0.14285 -0.09054,-0.0985 0.09852,0.0906 c 0.0917,0.0843 0.110604,0.1065 0.09054,0.1065 -0.0044,0 -0.04873,-0.0443 -0.09853,-0.0985 z m 3.075381,0.007 c 0.04902,-0.0506 0.09504,-0.092 0.102264,-0.092 0.0072,0 -0.02697,0.0414 -0.07599,0.092 -0.04902,0.0506 -0.09504,0.0919 -0.102264,0.0919 -0.0072,0 0.02697,-0.0414 0.07599,-0.0919 z m 13.583254,0.0295 c 0,-0.005 0.02069,-0.0262 0.04598,-0.046 0.04167,-0.0327 0.0426,-0.0318 0.0099,0.01 -0.03432,0.0438 -0.0559,0.0577 -0.0559,0.0361 z m -20.940853,-0.12802 c 0.10888,-0.116 0.13246,-0.13686 0.13246,-0.11713 0,0.004 -0.0562,0.0604 -0.12479,0.1248 l -0.1248,0.11713 z m -8.8062996,0.0661 c 0.0618,-0.006 0.15637,-0.005 0.21018,1.6e-4 0.0538,0.006 0.003,0.0102 -0.11235,0.0101 -0.11561,-8e-5 -0.15963,-0.005 -0.0978,-0.0103 z m 6.9879796,2.4e-4 c 0.047,-0.006 0.12381,-0.006 0.17077,0 0.047,0.006 0.009,0.0106 -0.0854,0.0106 -0.0939,0 -0.13236,-0.005 -0.0854,-0.0106 z m 21.123665,0 c 0.04696,-0.006 0.123813,-0.006 0.170776,0 0.04696,0.006 0.0085,0.0106 -0.08539,0.0106 -0.09393,0 -0.132351,-0.005 -0.08539,-0.0106 z m 5.325242,-0.0664 -0.07717,-0.0854 0.08539,0.0772 c 0.07959,0.0719 0.09746,0.0936 0.07717,0.0936 -0.0045,0 -0.04295,-0.0384 -0.08539,-0.0854 z m -28.113187,0 -0.0501,-0.0591 0.0591,0.05 c 0.0556,0.047 0.0711,0.0682 0.05,0.0682 -0.005,0 -0.0316,-0.0266 -0.0591,-0.0591 z m 9.18006,0.0412 c 0.01897,-0.008 0.04163,-0.007 0.05036,0.002 0.0087,0.009 -0.0068,0.0149 -0.03448,0.0138 -0.03061,-10e-4 -0.03683,-0.007 -0.01587,-0.0159 z m 11.969881,-0.0411 -0.05005,-0.0591 0.05911,0.05 c 0.05555,0.047 0.07108,0.0682 0.05005,0.0682 -0.005,0 -0.03159,-0.0266 -0.05911,-0.0591 z m 3.383727,-0.0854 c 5.75e-4,-0.0433 0.0064,-0.0579 0.01309,-0.0323 0.0067,0.0256 0.0062,0.061 -9.69e-4,0.0788 -0.0072,0.0178 -0.01265,-0.003 -0.01211,-0.0465 z m -24.046528,-0.34812 -0.0906,-0.0985 0.0985,0.0905 c 0.0542,0.0498 0.0985,0.0941 0.0985,0.0985 0,0.0201 -0.0222,10e-4 -0.1065,-0.0906 z m 21.135719,0.0131 -0.05005,-0.0591 0.05912,0.05 c 0.05555,0.047 0.07107,0.0682 0.05005,0.0682 -0.005,0 -0.03159,-0.0266 -0.05911,-0.0591 z m 6.962403,0 -0.05005,-0.0591 0.05912,0.05 c 0.05555,0.047 0.07108,0.0682 0.05005,0.0682 -0.005,0 -0.03159,-0.0266 -0.05911,-0.0591 z m -32.7753316,-0.69624 -0.0637,-0.0722 0.0723,0.0637 c 0.0675,0.0595 0.0843,0.0808 0.0637,0.0808 -0.005,0 -0.0372,-0.0325 -0.0722,-0.0722 z m 12.0371956,-0.20581 c 0.0013,-0.0306 0.0075,-0.0368 0.01587,-0.0159 0.0076,0.019 0.0067,0.0416 -0.0021,0.0504 -0.0087,0.009 -0.01494,-0.007 -0.0138,-0.0345 z m -11.5374356,-0.18829 -0.0905,-0.0985 0.0985,0.0905 c 0.0542,0.0498 0.0985,0.0941 0.0985,0.0985 0,0.0201 -0.0222,10e-4 -0.10651,-0.0905 z m 31.1372566,0.0306 c 0.0013,-0.0306 0.0075,-0.0368 0.01587,-0.0159 0.0076,0.019 0.0067,0.0416 -0.0021,0.0504 -0.0087,0.009 -0.01494,-0.007 -0.0138,-0.0345 z m -23.278067,-0.0263 c 0.001,-0.0306 0.007,-0.0368 0.0159,-0.0159 0.008,0.019 0.007,0.0416 -0.002,0.0503 -0.009,0.009 -0.0149,-0.007 -0.0138,-0.0345 z m -0.65683,-0.0788 c 10e-4,-0.0306 0.007,-0.0368 0.0159,-0.0159 0.008,0.019 0.007,0.0416 -0.002,0.0503 -0.009,0.009 -0.0149,-0.007 -0.0138,-0.0345 z m -3.54384,-0.0504 c 5.3e-4,-0.0433 0.006,-0.0579 0.0131,-0.0323 0.007,0.0256 0.006,0.061 -9.7e-4,0.0788 -0.007,0.0178 -0.0126,-0.003 -0.0121,-0.0465 z m 21.152691,-0.11823 c 0,-0.0795 0.0049,-0.11199 0.01095,-0.0722 0.006,0.0397 0.006,0.10477 0,0.14451 -0.006,0.0397 -0.01095,0.007 -0.01095,-0.0723 z m -21.807491,0 c 0,-0.065 0.005,-0.0916 0.0114,-0.0591 0.006,0.0325 0.006,0.0857 0,0.11823 -0.006,0.0325 -0.0114,0.006 -0.0114,-0.0591 z m 0.6548,-0.11823 c 5.3e-4,-0.0433 0.006,-0.0579 0.0131,-0.0323 0.007,0.0256 0.006,0.061 -9.7e-4,0.0788 -0.007,0.0178 -0.0126,-0.003 -0.0121,-0.0465 z m 3.54384,-0.0547 c 10e-4,-0.0306 0.007,-0.0368 0.0159,-0.0159 0.008,0.019 0.007,0.0416 -0.002,0.0503 -0.009,0.009 -0.0149,-0.007 -0.0138,-0.0345 z m 0.65683,-0.0525 c 0.001,-0.0306 0.007,-0.0368 0.0159,-0.0159 0.008,0.019 0.007,0.0416 -0.002,0.0504 -0.009,0.009 -0.0149,-0.007 -0.0138,-0.0345 z m 23.278067,-0.0525 c 0.0013,-0.0306 0.0075,-0.0368 0.01587,-0.0159 0.0076,0.019 0.0067,0.0416 -0.0021,0.0504 -0.0087,0.009 -0.01494,-0.007 -0.0138,-0.0345 z m -34.1343366,-0.0832 c -0.0327,-0.0417 -0.0318,-0.0426 0.01,-0.01 0.0438,0.0343 0.0577,0.0559 0.0361,0.0559 -0.005,0 -0.0262,-0.0207 -0.046,-0.046 z m -0.3068,-0.75536 c 5.7e-4,-0.0433 0.006,-0.0579 0.0131,-0.0323 0.007,0.0256 0.006,0.061 -9.7e-4,0.0788 -0.007,0.0178 -0.0126,-0.003 -0.0121,-0.0465 z m 0.65378,0.0241 c 0.001,-0.0306 0.007,-0.0368 0.0159,-0.0159 0.008,0.019 0.007,0.0416 -0.002,0.0504 -0.009,0.009 -0.0149,-0.007 -0.0138,-0.0345 z m 0,-0.1051 c 0.001,-0.0306 0.007,-0.0368 0.0159,-0.0159 0.008,0.019 0.007,0.0416 -0.002,0.0504 -0.009,0.009 -0.0149,-0.007 -0.0138,-0.0345 z m 2.50045,-0.029 c 0.0253,-0.007 0.0667,-0.007 0.0919,0 0.0253,0.007 0.005,0.012 -0.046,0.012 -0.0506,0 -0.0713,-0.005 -0.046,-0.012 z m 4.3274096,-0.0936 c 0.10888,-0.116 0.13247,-0.13685 0.13247,-0.11713 0,0.004 -0.0562,0.0604 -0.1248,0.1248 l -0.1248,0.11713 z m -4.0975196,0.0492 c 0,-0.005 0.0207,-0.0262 0.046,-0.046 0.0417,-0.0327 0.0426,-0.0317 0.01,0.01 -0.0343,0.0438 -0.0559,0.0577 -0.0559,0.0361 z m 25.1434686,0 c 0,-0.005 0.02069,-0.0262 0.04598,-0.046 0.04167,-0.0327 0.0426,-0.0317 0.0099,0.01 -0.03432,0.0438 -0.0559,0.0577 -0.0559,0.0361 z m 2.42862,-0.0755 -0.07717,-0.0854 0.08539,0.0772 c 0.07959,0.0719 0.09746,0.0936 0.07717,0.0936 -0.0045,0 -0.04295,-0.0384 -0.08539,-0.0854 z m -28.1238286,-0.0591 c -0.0638,-0.065 -0.11012,-0.11823 -0.1029,-0.11823 0.007,0 0.0654,0.0532 0.12917,0.11823 0.0638,0.065 0.11013,0.11823 0.1029,0.11823 -0.007,0 -0.0654,-0.0532 -0.12917,-0.11823 z m 32.7495676,0.0131 c 0.05644,-0.0578 0.108532,-0.10509 0.115757,-0.10509 0.0072,0 -0.03304,0.0473 -0.08948,0.10509 -0.05644,0.0578 -0.108531,0.1051 -0.115757,0.1051 -0.0072,0 0.03304,-0.0473 0.08948,-0.1051 z m -6.89672,-0.0362 c 0,-0.005 0.02069,-0.0262 0.04598,-0.046 0.04167,-0.0327 0.0426,-0.0318 0.0099,0.01 -0.03432,0.0438 -0.0559,0.0577 -0.0559,0.0361 z m -18.221468,-0.3382 -0.13037,-0.13793 0.13793,0.13037 c 0.12817,0.12115 0.14998,0.14549 0.13038,0.14549 -0.004,0 -0.0662,-0.0621 -0.13794,-0.13793 z m 24.500767,0.12801 c 0,-0.005 0.02069,-0.0261 0.04598,-0.046 0.04167,-0.0327 0.0426,-0.0317 0.0099,0.01 -0.03432,0.0438 -0.0559,0.0577 -0.0559,0.036 z m -27.967837,-0.12144 c 0.0564,-0.0578 0.10853,-0.10509 0.11575,-0.10509 0.007,0 -0.033,0.0473 -0.0895,0.10509 -0.0564,0.0578 -0.10853,0.10509 -0.11576,0.10509 -0.007,0 0.033,-0.0473 0.0895,-0.10509 z m 21.161976,-0.0328 c 0.108875,-0.116 0.132464,-0.13686 0.132464,-0.11713 0,0.004 -0.05616,0.0604 -0.124798,0.12479 l -0.124797,0.11713 z m 10.179474,0.0263 -0.05005,-0.0591 0.05911,0.05 c 0.05555,0.047 0.07108,0.0682 0.05005,0.0682 -0.005,0 -0.03159,-0.0266 -0.05912,-0.0591 z m -6.975032,-0.0394 -0.06369,-0.0722 0.07225,0.0637 c 0.03974,0.035 0.07225,0.0675 0.07225,0.0722 0,0.0206 -0.02128,0.004 -0.08081,-0.0637 z m -6.796207,0.002 c 0.02529,-0.007 0.06667,-0.007 0.09196,0 0.02529,0.007 0.0046,0.012 -0.04598,0.012 -0.05058,0 -0.07127,-0.005 -0.04598,-0.012 z m -16.011881,-0.0261 c 0.019,-0.008 0.0416,-0.007 0.0503,0.002 0.009,0.009 -0.007,0.0149 -0.0345,0.0138 -0.0306,-0.001 -0.0368,-0.007 -0.0159,-0.0159 z m 15.460144,-8.7e-4 c 0.03974,-0.006 0.104764,-0.006 0.144502,0 0.03974,0.006 0.0072,0.011 -0.07225,0.011 -0.07948,0 -0.111989,-0.005 -0.07225,-0.011 z m 14.165336,-0.0928 -0.05005,-0.0591 0.05912,0.05 c 0.05555,0.047 0.07107,0.0682 0.05005,0.0682 -0.005,0 -0.03159,-0.0266 -0.05912,-0.0591 z M 5.7425574,27.355971 c 0.019,-0.008 0.0416,-0.007 0.0504,0.002 0.009,0.009 -0.007,0.0149 -0.0345,0.0138 -0.0306,-10e-4 -0.0368,-0.007 -0.0159,-0.0159 z m 7.0149496,0 c 0.019,-0.008 0.0416,-0.007 0.0504,0.002 0.009,0.009 -0.007,0.0149 -0.0345,0.0138 -0.0306,-10e-4 -0.0368,-0.007 -0.0159,-0.0159 z m 0.52546,0 c 0.019,-0.008 0.0416,-0.007 0.0504,0.002 0.009,0.009 -0.007,0.0149 -0.0345,0.0138 -0.0306,-10e-4 -0.0368,-0.007 -0.0159,-0.0159 z m 20.493112,0 c 0.01897,-0.008 0.04163,-0.007 0.05036,0.002 0.0087,0.009 -0.0068,0.0149 -0.03448,0.0138 -0.03061,-10e-4 -0.03683,-0.007 -0.01587,-0.0159 z m 6.962402,0 c 0.01897,-0.008 0.04163,-0.007 0.05036,0.002 0.0087,0.009 -0.0068,0.0149 -0.03448,0.0138 -0.03061,-10e-4 -0.03683,-0.007 -0.01587,-0.0159 z m 0.525465,0 c 0.01897,-0.008 0.04163,-0.007 0.05036,0.002 0.0087,0.009 -0.0068,0.0149 -0.03448,0.0138 -0.03061,-10e-4 -0.03683,-0.007 -0.01587,-0.0159 z m 0.563732,-1.2351 c 0.02556,-0.007 0.06103,-0.006 0.07882,9.8e-4 0.01779,0.007 -0.0031,0.0126 -0.04648,0.0121 -0.04335,-5.8e-4 -0.0579,-0.006 -0.03234,-0.0131 z m 0.643194,8.2e-4 c 0.01806,-0.007 0.04762,-0.007 0.06568,0 0.01806,0.007 0.0033,0.0133 -0.03284,0.0133 -0.03612,0 -0.0509,-0.006 -0.03284,-0.0133 z m -8.335567,-3.54263 c 0,-1.87854 0.0031,-2.64316 0.007,-1.69915 0.0038,0.944 0.0038,2.48098 -10e-7,3.41552 -0.0038,0.93453 -0.007,0.16216 -0.007,-1.71637 z m 6.094539,2.92289 -0.103857,-0.11166 0.111661,0.10386 c 0.06141,0.0571 0.111661,0.10737 0.111661,0.11166 0,0.0199 -0.02288,-10e-6 -0.119465,-0.10386 z m -0.666657,-1.76906 c 0.0013,-0.0306 0.0075,-0.0368 0.01587,-0.0159 0.0076,0.019 0.0067,0.0416 -0.0021,0.0504 -0.0087,0.009 -0.01494,-0.007 -0.0138,-0.0345 z m 1.631988,-0.33936 c 5.74e-4,-0.0434 0.0064,-0.0579 0.01309,-0.0323 0.0067,0.0256 0.0062,0.061 -9.77e-4,0.0788 -0.0072,0.0178 -0.01265,-0.003 -0.01211,-0.0465 z m -1.654053,-3.28918 c -0.0035,-1.72234 0.0026,-3.13701 0.01342,-3.14371 0.01783,-0.011 0.0177,2.16551 -3.28e-4,5.1455 -0.0038,0.62136 -0.0097,-0.27944 -0.01311,-2.00179 z m 2.299192,0.10357 c 0.35042,-0.004 0.923833,-0.004 1.274252,0 0.350419,0.004 0.06371,0.008 -0.637126,0.008 -0.700838,0 -0.987545,-0.003 -0.637126,-0.008 z m -4.51735,-0.0771 c 0.01897,-0.008 0.04163,-0.007 0.05036,0.002 0.0087,0.009 -0.0068,0.0149 -0.03448,0.0138 -0.03061,-0.001 -0.03683,-0.007 -0.01587,-0.0159 z m -0.697883,-0.0264 c 0.02529,-0.007 0.06667,-0.007 0.09196,0 0.02529,0.007 0.0046,0.012 -0.04598,0.012 -0.05058,0 -0.07127,-0.005 -0.04598,-0.012 z m 0.275869,-4.1e-4 c 0.03251,-0.006 0.08572,-0.006 0.11823,0 0.03251,0.006 0.0059,0.0114 -0.05911,0.0114 -0.06503,0 -0.09163,-0.005 -0.05912,-0.0114 z m -0.944194,-1.36562 c 0.01897,-0.008 0.04163,-0.007 0.05036,0.002 0.0087,0.009 -0.0068,0.0149 -0.03448,0.0138 -0.03061,-10e-4 -0.03683,-0.007 -0.01587,-0.0159 z m 0.289006,-0.0263 c 0.01897,-0.008 0.04163,-0.007 0.05036,0.002 0.0087,0.009 -0.0068,0.0149 -0.03448,0.0138 -0.03061,-0.001 -0.03683,-0.007 -0.01587,-0.0159 z m 1.077202,0 c 0.01897,-0.008 0.04163,-0.007 0.05036,0.002 0.0087,0.009 -0.0068,0.0149 -0.03448,0.0138 -0.03061,-0.001 -0.03683,-0.007 -0.01587,-0.0159 z m -0.474254,-0.0269 c 0.03268,-0.006 0.07997,-0.006 0.105093,5.8e-4 0.02512,0.007 -0.0016,0.0117 -0.05942,0.0114 -0.0578,-3.2e-4 -0.07835,-0.006 -0.04567,-0.012 z"
     id="path2" /><path
     style="fill:#57585a;stroke-width:1"
     d="m 5.8000274,32.215031 c -0.37202,-0.0293 -0.87916,-0.17414 -1.1525,-0.32924 -0.19048,-0.10808 -0.44062,-0.31953 -0.48926,-0.41359 -0.0798,-0.15434 -0.0359,-0.31154 0.11561,-0.41362 0.0967,-0.0651 0.23469,-0.0777 0.32588,-0.0297 0.0316,0.0166 0.12577,0.0932 0.20935,0.17022 0.17438,0.16063 0.4509,0.3029 0.71578,0.36827 0.24861,0.0614 0.82808,0.0621 1.05673,10e-4 0.43693,-0.11599 0.69346,-0.38176 0.69346,-0.71845 0,-0.4374 -0.37623,-0.68206 -1.306,-0.84925 -0.66987,-0.12045 -1.05012,-0.27904 -1.33143,-0.55528 -0.24028,-0.23596 -0.31588,-0.40176 -0.33044,-0.72472 -0.0196,-0.43486 0.14145,-0.7782 0.4775,-1.018 0.34359,-0.24519 0.69373,-0.3404 1.25178,-0.3404 0.44521,0 0.73399,0.0582 1.04079,0.20969 0.355,0.1753 0.68583,0.49624 0.7119,0.69059 0.0129,0.0962 0.005,0.11614 -0.0784,0.19957 -0.0839,0.0839 -0.10656,0.0927 -0.23931,0.0927 -0.14442,0 -0.14955,-0.003 -0.3432,-0.17921 -0.10813,-0.0986 -0.25527,-0.21114 -0.32698,-0.25017 -0.40615,-0.22105 -1.06969,-0.23539 -1.47147,-0.0318 -0.25782,0.13065 -0.38156,0.3101 -0.38143,0.55314 2.5e-4,0.44951 0.3285,0.64626 1.40333,0.84113 0.55366,0.10039 0.92881,0.26494 1.21124,0.53129 0.28544,0.26919 0.40529,0.62425 0.34153,1.01177 -0.0466,0.28314 -0.13154,0.44366 -0.3506,0.66249 -0.29982,0.2995 -0.66813,0.45616 -1.2055,0.51276 -0.24286,0.0256 -0.31552,0.0267 -0.54841,0.008 z m 7.0018096,0.003 c -0.92859,-0.0904 -1.65498,-0.60137 -2.00471,-1.41028 -0.25301,-0.58523 -0.25485,-1.42491 -0.004,-2.02646 0.22313,-0.536 0.69498,-1.0104 1.22786,-1.2345 0.70766,-0.29762 1.63623,-0.24444 2.27476,0.13027 0.241,0.14143 0.58385,0.45867 0.7333,0.67851 0.13028,0.19167 0.2876,0.53011 0.3434,0.73877 0.10464,0.39131 0.1159,0.86868 0.0301,1.27729 -0.1851,0.88192 -0.92075,1.6151 -1.79899,1.79297 -0.20985,0.0425 -0.62748,0.0703 -0.80134,0.0534 z m 0.70466,-0.65618 c 0.47433,-0.12291 0.88315,-0.45505 1.09687,-0.89111 0.15282,-0.31182 0.19315,-0.49557 0.19315,-0.88016 0,-0.38741 -0.04,-0.56686 -0.19885,-0.89329 -0.0867,-0.17817 -0.15178,-0.26584 -0.32171,-0.43362 -0.32535,-0.32122 -0.66791,-0.47351 -1.13241,-0.50343 -0.33244,-0.0214 -0.61791,0.0363 -0.91972,0.18585 -0.40981,0.2031 -0.6954,0.52289 -0.85328,0.95547 -0.47038,1.28889 0.42746,2.58468 1.7423,2.51451 0.12771,-0.007 0.30485,-0.0312 0.39365,-0.0542 z m 6.796347,0.65464 c -0.569708,-0.0897 -0.958713,-0.27902 -1.280653,-0.62317 -0.282466,-0.30196 -0.444941,-0.63311 -0.519007,-1.05784 -0.05862,-0.33616 -0.05829,-2.8655 3.86e-4,-2.97898 0.10318,-0.19953 0.438281,-0.20886 0.566589,-0.0158 0.03051,0.0459 0.03986,0.31026 0.05167,1.46167 0.01599,1.5594 0.01022,1.50585 0.201741,1.87232 0.520533,0.99604 2.283309,0.96151 2.785656,-0.0546 l 0.09842,-0.19908 0.01314,-1.51214 c 0.01216,-1.39968 0.01665,-1.51731 0.06039,-1.58173 0.0647,-0.0953 0.178092,-0.13702 0.326717,-0.12027 0.156092,0.0176 0.258515,0.12159 0.282372,0.28672 0.009,0.0623 0.0128,1.04787 0.0084,2.19009 -0.0074,1.92995 -0.01121,2.08174 -0.05417,2.14729 -0.11381,0.17364 -0.3776,0.19852 -0.52648,0.0496 -0.07435,-0.0743 -0.08113,-0.0968 -0.09205,-0.30494 l -0.01179,-0.22469 -0.163025,0.15101 c -0.282056,0.26126 -0.60927,0.42098 -1.012687,0.49431 -0.182763,0.0332 -0.583039,0.0442 -0.73565,0.0202 z m 13.609527,0.001 c -0.449451,-0.0518 -0.784773,-0.16742 -1.10348,-0.3806 -0.806536,-0.53949 -1.192801,-1.51502 -1.011509,-2.55463 0.132826,-0.76168 0.619027,-1.41619 1.282715,-1.72675 0.647319,-0.3029 1.530669,-0.26058 2.142025,0.10262 0.21131,0.12554 0.575042,0.45714 0.646039,0.58898 0.06224,0.11557 0.04033,0.20926 -0.07618,0.32577 -0.06746,0.0675 -0.109982,0.0878 -0.183669,0.0878 -0.12083,0 -0.221616,-0.0517 -0.294961,-0.1514 -0.0834,-0.11332 -0.363916,-0.31765 -0.558141,-0.40654 -0.473197,-0.21656 -1.070198,-0.19088 -1.525946,0.0656 -0.340739,0.19179 -0.647157,0.61732 -0.765287,1.06278 -0.07631,0.28774 -0.077,0.80637 -0.0014,1.0885 0.167968,0.62727 0.612593,1.08334 1.215479,1.24677 0.228668,0.062 0.711594,0.0627 0.943735,0.001 0.224045,-0.0592 0.45223,-0.16914 0.628734,-0.30297 0.117232,-0.0889 0.163389,-0.10819 0.258791,-0.10819 0.09702,0 0.130801,0.0147 0.205441,0.0893 0.07524,0.0752 0.08933,0.10806 0.08933,0.20808 0,0.11134 -0.0094,0.12711 -0.149878,0.25234 -0.198849,0.17723 -0.556691,0.35885 -0.856124,0.43452 -0.235082,0.0594 -0.691921,0.0989 -0.88567,0.0766 z m 6.906356,-0.0104 c -0.714012,-0.0811 -1.311666,-0.43846 -1.691162,-1.01107 -0.166703,-0.25153 -0.257724,-0.46134 -0.333769,-0.76936 -0.0754,-0.30539 -0.08135,-0.91156 -0.01215,-1.23727 0.190036,-0.89448 0.784338,-1.53742 1.633343,-1.76704 0.300241,-0.0812 0.905614,-0.0816 1.208568,-7.3e-4 0.740497,0.19752 1.295183,0.76843 1.496119,1.53987 0.05963,0.22892 0.100869,0.58104 0.08727,0.74505 -0.01013,0.12215 -0.02531,0.15713 -0.09532,0.21969 l -0.08328,0.0744 h -1.84102 -1.84102 l 0.01842,0.11166 c 0.07651,0.46373 0.315777,0.87983 0.656163,1.14112 0.630848,0.48424 1.529617,0.50085 2.205905,0.0408 0.154336,-0.10499 0.202233,-0.1244 0.306986,-0.1244 0.101405,0 0.138797,0.0141 0.204335,0.0768 0.09873,0.0946 0.12621,0.21731 0.07209,0.32196 -0.02184,0.0422 -0.1086,0.12491 -0.192806,0.18372 -0.501196,0.35008 -1.18931,0.52407 -1.798678,0.45481 z m 1.752952,-2.89109 c -0.04314,-0.3252 -0.238063,-0.71427 -0.476225,-0.95054 -0.278149,-0.27594 -0.635586,-0.41307 -1.078543,-0.41379 -0.727307,-0.001 -1.310667,0.41116 -1.548266,1.09438 -0.03436,0.0988 -0.0705,0.22986 -0.08032,0.29122 l -0.01784,0.11158 h 1.609409 1.609409 z m -16.163251,2.83952 c -0.03052,-0.0123 -0.08076,-0.0546 -0.111661,-0.0938 l -0.05618,-0.0714 v -2.20603 -2.20604 l 0.08933,-0.0893 c 0.07721,-0.0772 0.106613,-0.0893 0.216754,-0.0889 0.262869,8.2e-4 0.350642,0.11804 0.350707,0.46846 l 4.1e-5,0.21925 0.164207,-0.16852 c 0.409263,-0.42001 0.844606,-0.59053 1.438459,-0.56342 0.351111,0.016 0.474076,0.05 0.595303,0.16429 0.06866,0.0648 0.0878,0.1039 0.0878,0.17953 0,0.1165 -0.06036,0.24236 -0.126255,0.26328 -0.02641,0.008 -0.254127,0.0127 -0.506047,0.01 -0.363612,-0.004 -0.493243,0.004 -0.628813,0.0396 -0.507725,0.13459 -0.873994,0.46613 -0.988006,0.89433 -0.02841,0.10671 -0.03609,0.4394 -0.03634,1.5746 -3.29e-4,1.57867 -4.11e-4,1.57948 -0.154577,1.6592 -0.08568,0.0443 -0.245043,0.0516 -0.334729,0.0154 z m 15.307321,-6.04381 c -1.165362,-0.1221 -1.825641,-0.69305 -2.050421,-1.773 -0.101733,-0.48877 -0.107027,-0.70802 -0.09892,-4.09767 l 0.0078,-3.28321 0.807901,-0.13447 0.807902,-0.13448 v 1.0728 1.07279 h 1.274251 1.274251 v 0.68286 0.68285 l -1.267683,0.007 -1.267683,0.007 v 1.70776 c 0,1.68086 9.28e-4,1.71138 0.05866,1.9378 0.06933,0.27192 0.132792,0.4045 0.262129,0.54766 0.196401,0.21739 0.469581,0.31159 0.905585,0.31225 0.348231,4.9e-4 0.604936,-0.0393 0.950364,-0.14734 0.16112,-0.0504 0.309675,-0.094 0.33012,-0.0968 0.028,-0.004 0.06819,0.14071 0.162917,0.58604 0.06916,0.32513 0.126324,0.61655 0.127034,0.6476 0.0011,0.0466 -0.03192,0.0684 -0.189191,0.12505 -0.319949,0.11523 -0.625494,0.1991 -0.873584,0.23977 -0.298545,0.049 -0.929858,0.0686 -1.221473,0.0381 z m -17.880222,-0.1769 c 0.0097,-0.0253 0.09259,-0.25879 0.184128,-0.51889 1.131069,-3.2139 2.236073,-5.98756 3.352078,-8.414 l 0.220532,-0.47949 h 0.821475 0.821475 l 0.07568,0.16421 c 1.036199,2.24842 1.852908,4.22732 2.859894,6.92956 0.242948,0.65195 0.848297,2.33189 0.848297,2.35416 0,0.006 -0.414794,0.008 -0.921764,0.004 l -0.921764,-0.007 -0.184508,-0.51232 c -0.10148,-0.28178 -0.28079,-0.78118 -0.398466,-1.10977 l -0.213957,-0.59744 -1.996827,-2.5e-4 -1.996828,-2.4e-4 -0.111777,0.32184 c -0.06148,0.17702 -0.238367,0.6795 -0.393087,1.11662 l -0.281307,0.79476 h -0.890482 c -0.837303,0 -0.889425,-0.003 -0.872788,-0.046 z m 6.071481,-3.67825 c -0.02072,-0.0542 -0.203321,-0.54324 -0.405769,-1.08679 -0.360928,-0.96905 -0.891256,-2.31269 -1.046169,-2.65057 l -0.0783,-0.17078 -0.04594,0.10509 c -0.238947,0.54659 -0.895685,2.22614 -1.258481,3.21847 -0.108303,0.29623 -0.209408,0.57112 -0.224681,0.61085 l -0.02777,0.0723 h 1.562393 1.562394 z m 4.241822,0.32316 v -3.40106 l 0.282437,-0.0909 c 0.747505,-0.24042 1.408344,-0.35497 2.174109,-0.37683 0.655624,-0.0187 1.260681,0.0471 1.739592,0.18936 l 0.132791,0.0394 -0.138399,0.67121 c -0.07612,0.36917 -0.144304,0.67712 -0.151521,0.68434 -0.0072,0.007 -0.106118,-0.0104 -0.219782,-0.0392 -0.742857,-0.18792 -1.483918,-0.19784 -2.091762,-0.028 l -0.09853,0.0275 v 2.86254 2.86255 h -0.81447 -0.81447 z"
     id="path1" /><style
     type="text/css"
     id="style1">
	.st0{fill:#FFFFFF;}
</style></svg>
