<?xml version="1.0" encoding="UTF-8" standalone="no"?>
<svg
   id="Layer_1"
   data-name="Layer 1"
   viewBox="0 0 48 47.999999"
   version="1.1"
   sodipodi:docname="scidraw.svg"
   width="48"
   height="48"
   inkscape:version="1.4 (86a8ad7, 2024-10-11)"
   xml:space="preserve"
   xmlns:inkscape="http://www.inkscape.org/namespaces/inkscape"
   xmlns:sodipodi="http://sodipodi.sourceforge.net/DTD/sodipodi-0.dtd"
   xmlns="http://www.w3.org/2000/svg"
   xmlns:svg="http://www.w3.org/2000/svg"
   xmlns:rdf="http://www.w3.org/1999/02/22-rdf-syntax-ns#"
   xmlns:cc="http://creativecommons.org/ns#"
   xmlns:dc="http://purl.org/dc/elements/1.1/"><metadata
     id="metadata47"><rdf:RDF><cc:Work
         rdf:about=""><dc:format>image/svg+xml</dc:format><dc:type
           rdf:resource="http://purl.org/dc/dcmitype/StillImage" /><dc:title>Reactome_Imagotype_Positive</dc:title></cc:Work></rdf:RDF></metadata><sodipodi:namedview
     pagecolor="#ffffff"
     bordercolor="#999999"
     borderopacity="1"
     objecttolerance="10"
     gridtolerance="10"
     guidetolerance="10"
     inkscape:pageopacity="0"
     inkscape:pageshadow="0"
     inkscape:window-width="1534"
     inkscape:window-height="843"
     id="namedview45"
     showgrid="false"
     inkscape:zoom="2.1826528"
     inkscape:cx="124.13182"
     inkscape:cy="104.77682"
     inkscape:window-x="66"
     inkscape:window-y="20"
     inkscape:window-maximized="1"
     inkscape:current-layer="Layer_1"
     inkscape:showpageshadow="2"
     inkscape:pagecheckerboard="0"
     inkscape:deskcolor="#d1d1d1" /><defs
     id="defs4"><style
       id="style2">.cls-1{fill:#2f9ec2;}.cls-2{fill:#d1eaf2;}.cls-3{fill:#9bd1e2;}.cls-4{fill:#80c4da;}.cls-5{fill:#65b7d2;}.cls-6{fill:#4aabca;}</style></defs><title
     id="title6">Reactome_Imagotype_Positive</title><path
     style="fill:#d1d1d1;stroke-width:1"
     d="m 20.532734,32.240781 c 0.04696,-0.006 0.123813,-0.006 0.170776,0 0.04696,0.006 0.0085,0.0106 -0.08539,0.0106 -0.09393,0 -0.132351,-0.005 -0.08539,-0.0106 z m 13.926449,-0.0252 c 0.01897,-0.008 0.04163,-0.007 0.05036,0.002 0.0087,0.009 -0.0068,0.0149 -0.03448,0.0138 -0.03061,-10e-4 -0.03683,-0.007 -0.01587,-0.0159 z m -11.94232,-0.0265 c 0.02556,-0.007 0.06103,-0.006 0.07882,9.7e-4 0.01779,0.007 -0.0031,0.0126 -0.04648,0.0121 -0.04335,-5.7e-4 -0.0579,-0.006 -0.03234,-0.0131 z m 4.019802,0 c 0.02556,-0.007 0.06103,-0.006 0.07882,9.7e-4 0.01779,0.007 -0.0031,0.0126 -0.04648,0.0121 -0.04335,-5.7e-4 -0.05791,-0.006 -0.03234,-0.0131 z m -11.961378,-0.46463 c 0,-0.005 0.0207,-0.0261 0.046,-0.046 0.0417,-0.0327 0.0426,-0.0318 0.01,0.01 -0.0343,0.0438 -0.0559,0.0577 -0.0559,0.0361 z m 24.956202,-0.0361 c -0.03268,-0.0417 -0.03175,-0.0426 0.0099,-0.01 0.02529,0.0198 0.04598,0.0405 0.04598,0.046 0,0.0216 -0.02157,0.008 -0.0559,-0.0361 z m -28.150902,-0.0394 -0.05,-0.0591 0.0591,0.05 c 0.0325,0.0275 0.0591,0.0541 0.0591,0.0591 0,0.021 -0.0211,0.006 -0.0682,-0.05 z m 21.162225,0.0131 c -0.03268,-0.0417 -0.03175,-0.0426 0.0099,-0.01 0.02529,0.0198 0.04598,0.0405 0.04598,0.046 0,0.0216 -0.02157,0.008 -0.0559,-0.0361 z m -28.3076946,-0.0657 -0.0772,-0.0854 0.0854,0.0772 c 0.0796,0.0719 0.0975,0.0936 0.0772,0.0936 -0.005,0 -0.0429,-0.0384 -0.0854,-0.0854 z m 36.8698536,0.0143 c 0.03268,-0.006 0.07997,-0.006 0.105093,4.9e-4 0.02512,0.007 -0.0016,0.0117 -0.05942,0.0114 -0.0578,-3.3e-4 -0.07835,-0.006 -0.04567,-0.012 z m -34.7581336,-0.0256 c 0.019,-0.008 0.0416,-0.007 0.0504,0.002 0.009,0.009 -0.007,0.0149 -0.0345,0.0138 -0.0306,-10e-4 -0.0368,-0.007 -0.0159,-0.0159 z m 14.2909896,-5.8e-4 c 0.03251,-0.006 0.08572,-0.006 0.11823,0 0.03251,0.006 0.0059,0.0114 -0.05912,0.0114 -0.06503,0 -0.09163,-0.005 -0.05911,-0.0114 z m -9.48141,-0.15882 c -0.0327,-0.0417 -0.0318,-0.0426 0.01,-0.01 0.0253,0.0198 0.046,0.0405 0.046,0.046 0,0.0216 -0.0216,0.008 -0.0559,-0.0361 z m 21.149937,0 c -0.03268,-0.0417 -0.03175,-0.0426 0.0099,-0.01 0.02529,0.0198 0.04598,0.0405 0.04598,0.046 0,0.0216 -0.02158,0.008 -0.0559,-0.0361 z m -17.415797,-0.0165 c 0,-0.005 0.0207,-0.0261 0.046,-0.046 0.0417,-0.0327 0.0426,-0.0317 0.01,0.01 -0.0343,0.0438 -0.0559,0.0577 -0.0559,0.036 z m -10.1428696,-0.27251 -0.0905,-0.0985 0.0985,0.0905 c 0.0917,0.0843 0.1106,0.10651 0.0905,0.10651 -0.004,0 -0.0487,-0.0443 -0.0985,-0.0985 z m 14.7912446,0.0263 -0.06369,-0.0722 0.07225,0.0637 c 0.03974,0.035 0.07225,0.0675 0.07225,0.0722 0,0.0206 -0.02128,0.004 -0.08081,-0.0637 z m 2.314032,-0.0197 c 0.04902,-0.0506 0.09504,-0.0919 0.102264,-0.0919 0.0072,0 -0.02697,0.0414 -0.07599,0.0919 -0.04902,0.0506 -0.09504,0.092 -0.102264,0.092 -0.0072,0 0.02697,-0.0414 0.07599,-0.092 z m -7.592957,-0.0263 c 0.0339,-0.0361 0.0676,-0.0657 0.0748,-0.0657 0.007,0 -0.0146,0.0296 -0.0486,0.0657 -0.0339,0.0361 -0.0676,0.0657 -0.0748,0.0657 -0.007,0 0.0146,-0.0295 0.0486,-0.0657 z m 25.507941,-0.11166 c -0.03268,-0.0417 -0.03175,-0.0426 0.0099,-0.01 0.02529,0.0198 0.04598,0.0405 0.04598,0.046 0,0.0216 -0.02157,0.008 -0.0559,-0.0361 z M 22.19659,30.431651 c 0.0013,-0.0306 0.0075,-0.0368 0.01587,-0.0159 0.0076,0.019 0.0067,0.0416 -0.0021,0.0503 -0.0087,0.009 -0.01494,-0.007 -0.0138,-0.0345 z m -3.75707,-0.18391 c 0.0013,-0.0306 0.0075,-0.0368 0.01587,-0.0159 0.0076,0.019 0.0067,0.0416 -0.0021,0.0504 -0.0087,0.009 -0.01494,-0.007 -0.0138,-0.0345 z m -7.855693,-0.21019 c 0.001,-0.0306 0.007,-0.0368 0.0159,-0.0159 0.008,0.019 0.007,0.0416 -0.002,0.0503 -0.009,0.009 -0.0149,-0.007 -0.0138,-0.0345 z m 8.548832,-1.18011 c 5e-6,-0.66471 0.0034,-0.93287 0.0076,-0.59591 0.0042,0.33696 0.0042,0.88082 -1.1e-5,1.20857 -0.0042,0.32775 -0.0076,0.0521 -0.0076,-0.61266 z m 12.601109,1.15384 c 0.0013,-0.0306 0.0075,-0.0368 0.01587,-0.0159 0.0076,0.019 0.0067,0.0416 -0.0021,0.0504 -0.0087,0.009 -0.01494,-0.007 -0.0138,-0.0345 z m 6.967485,-0.22114 c 0,-0.065 0.0051,-0.0916 0.01139,-0.0591 0.0063,0.0325 0.0063,0.0857 0,0.11823 -0.0063,0.0325 -0.01139,0.006 -0.01139,-0.0591 z m -23.227556,0.0131 c 5.3e-4,-0.0433 0.006,-0.0579 0.0131,-0.0323 0.007,0.0256 0.006,0.061 -9.7e-4,0.0788 -0.007,0.0178 -0.0126,-0.003 -0.0121,-0.0465 z m 27.746908,-0.15764 c 1.64e-4,-0.0723 0.0053,-0.0987 0.01134,-0.0588 0.006,0.0399 0.0059,0.0991 -3.29e-4,0.13136 -0.0062,0.0323 -0.01118,-3.2e-4 -0.01098,-0.0726 z m -11.486837,-0.081 c 0.0013,-0.0306 0.0075,-0.0368 0.01587,-0.0159 0.0076,0.019 0.0067,0.0416 -0.0021,0.0504 -0.0087,0.009 -0.01494,-0.007 -0.0138,-0.0345 z m -21.149941,-0.0263 c 0.001,-0.0306 0.007,-0.0368 0.0159,-0.0159 0.008,0.019 0.007,0.0416 -0.002,0.0503 -0.009,0.009 -0.0149,-0.007 -0.0138,-0.0345 z m 16.317744,-0.40505 c 0,-0.0361 0.006,-0.0509 0.01325,-0.0328 0.0073,0.0181 0.0073,0.0476 0,0.0657 -0.0073,0.0181 -0.01325,0.003 -0.01325,-0.0328 z m -12.642984,-0.67653 -0.0905,-0.0985 0.0985,0.0906 c 0.0542,0.0498 0.0985,0.0941 0.0985,0.0985 0,0.0201 -0.0222,0.001 -0.10651,-0.0905 z m 27.887942,-0.0131 -0.05005,-0.0591 0.05912,0.05 c 0.05555,0.047 0.07108,0.0682 0.05005,0.0682 -0.005,0 -0.03159,-0.0266 -0.05911,-0.0591 z m -14.986375,0.0246 c 0,-0.005 0.03843,-0.0429 0.08539,-0.0854 l 0.08539,-0.0772 -0.07717,0.0854 c -0.07193,0.0796 -0.09361,0.0975 -0.09361,0.0772 z m 14.855009,-0.15598 -0.05005,-0.0591 0.05912,0.05 c 0.05555,0.047 0.07108,0.0682 0.05005,0.0682 -0.005,0 -0.03159,-0.0266 -0.05911,-0.0591 z m -34.2162956,-0.035 c 0.001,-0.0306 0.007,-0.0368 0.0159,-0.0159 0.008,0.019 0.007,0.0416 -0.002,0.0504 -0.009,0.009 -0.0149,-0.007 -0.0138,-0.0345 z m 27.9755506,-0.16202 c -0.03268,-0.0417 -0.03175,-0.0426 0.0099,-0.01 0.04377,0.0343 0.05768,0.0559 0.03606,0.0559 -0.0055,0 -0.02615,-0.0207 -0.04598,-0.046 z m -28.1246206,-0.11823 -0.05,-0.0591 0.0591,0.05 c 0.0555,0.047 0.0711,0.0682 0.05,0.0682 -0.005,0 -0.0316,-0.0266 -0.0591,-0.0591 z m 31.6748566,0.0509 c 0,-0.005 0.03842,-0.043 0.08539,-0.0854 l 0.08539,-0.0772 -0.07717,0.0854 c -0.07193,0.0796 -0.09361,0.0975 -0.09361,0.0772 z m -10.699768,-0.0617 c 0.01806,-0.007 0.04762,-0.007 0.06568,0 0.01806,0.007 0.0033,0.0132 -0.03284,0.0132 -0.03613,0 -0.05091,-0.006 -0.03284,-0.0132 z m -22.7652486,-0.0271 c 0.0256,-0.007 0.061,-0.006 0.0788,9.8e-4 0.0178,0.007 -0.003,0.0127 -0.0465,0.0121 -0.0434,-5.7e-4 -0.0579,-0.006 -0.0324,-0.0131 z m 0.23646,0 c 0.0256,-0.007 0.061,-0.006 0.0788,9.8e-4 0.0178,0.007 -0.003,0.0127 -0.0465,0.0121 -0.0434,-5.7e-4 -0.0579,-0.006 -0.0323,-0.0131 z m 34.7721076,8.3e-4 c 0.01806,-0.007 0.04762,-0.007 0.06568,0 0.01806,0.007 0.0033,0.0133 -0.03284,0.0133 -0.03613,0 -0.05091,-0.006 -0.03284,-0.0133 z m 0.223823,-8.3e-4 c 0.02556,-0.007 0.06103,-0.006 0.07882,9.8e-4 0.01779,0.007 -0.0031,0.0127 -0.04648,0.0121 -0.04335,-5.7e-4 -0.0579,-0.006 -0.03234,-0.0131 z m -14.089513,-0.0163 c 0,-0.005 0.03842,-0.0429 0.08539,-0.0854 l 0.08539,-0.0772 -0.07717,0.0854 c -0.07193,0.0796 -0.09361,0.0975 -0.09361,0.0772 z m -15.606288,-0.028 c 0,-0.005 0.0207,-0.0262 0.046,-0.046 0.0417,-0.0327 0.0426,-0.0318 0.01,0.01 -0.0343,0.0438 -0.0559,0.0577 -0.0559,0.0361 z m 24.115459,-0.0623 c -0.03268,-0.0417 -0.03175,-0.0426 0.0099,-0.01 0.04377,0.0343 0.05768,0.0559 0.03606,0.0559 -0.0055,0 -0.02615,-0.0207 -0.04598,-0.046 z m -30.9070886,-0.0328 c 0.0262,-0.0289 0.0535,-0.0525 0.0607,-0.0525 0.007,0 -0.008,0.0236 -0.0344,0.0525 -0.0262,0.0289 -0.0535,0.0525 -0.0607,0.0525 -0.007,0 0.008,-0.0236 0.0344,-0.0525 z m 2.87356,0.007 c -0.0327,-0.0417 -0.0318,-0.0426 0.01,-0.01 0.0253,0.0198 0.046,0.0405 0.046,0.046 0,0.0216 -0.0216,0.008 -0.0559,-0.0361 z m 11.0118346,-0.30549 c 0,-0.005 0.02069,-0.0262 0.04598,-0.046 0.04167,-0.0327 0.0426,-0.0317 0.0099,0.01 -0.03432,0.0438 -0.0559,0.0577 -0.0559,0.0361 z m 8.298985,-0.0623 c -0.03268,-0.0417 -0.03175,-0.0426 0.0099,-0.01 0.04376,0.0343 0.05768,0.0559 0.03606,0.0559 -0.0055,0 -0.02615,-0.0207 -0.04598,-0.046 z M 5.9773674,27.328691 c 0.0325,-0.006 0.0857,-0.006 0.11823,0 0.0325,0.006 0.006,0.0114 -0.0591,0.0114 -0.065,0 -0.0916,-0.005 -0.0591,-0.0114 z m 6.9886796,0 c 0.0325,-0.006 0.0857,-0.006 0.11823,0 0.0325,0.006 0.006,0.0114 -0.0591,0.0114 -0.065,0 -0.0916,-0.005 -0.0591,-0.0114 z m 15.24011,5.8e-4 c 0.01897,-0.008 0.04163,-0.007 0.05036,0.002 0.0087,0.009 -0.0068,0.0149 -0.03448,0.0138 -0.03061,-0.001 -0.03683,-0.007 -0.01587,-0.0159 z m 0.339909,5.7e-4 c 0.01806,-0.007 0.04762,-0.007 0.06568,0 0.01806,0.007 0.0033,0.0133 -0.03284,0.0133 -0.03613,0 -0.0509,-0.006 -0.03284,-0.0133 z m 5.465136,-10e-4 c 0.03268,-0.006 0.07997,-0.006 0.105093,4.9e-4 0.02512,0.007 -0.0016,0.0117 -0.05942,0.0114 -0.0578,-3.3e-4 -0.07835,-0.006 -0.04567,-0.012 z m 6.962403,0 c 0.03268,-0.006 0.07997,-0.006 0.105093,4.9e-4 0.02512,0.007 -0.0016,0.0117 -0.05942,0.0114 -0.0578,-3.3e-4 -0.07835,-0.006 -0.04567,-0.012 z m 0.710712,-1.20793 c 0.01897,-0.008 0.04163,-0.007 0.05036,0.002 0.0087,0.009 -0.0068,0.0149 -0.03448,0.0138 -0.03061,-10e-4 -0.03683,-0.007 -0.01587,-0.0159 z m 0.972109,0 c 0.01897,-0.008 0.04163,-0.007 0.05036,0.002 0.0087,0.009 -0.0068,0.0149 -0.03448,0.0138 -0.03061,-10e-4 -0.03683,-0.007 -0.01587,-0.0159 z m -6.86598,-2.99037 c -1e-6,-1.57508 0.0032,-2.22329 0.007,-1.44047 0.0039,0.78282 0.0039,2.07152 10e-7,2.86378 -0.0039,0.79226 -0.007,0.15177 -0.007,-1.42331 z m -18.509019,2.10186 c -0.0638,-0.065 -0.11013,-0.11823 -0.1029,-0.11823 0.007,0 0.0654,0.0532 0.12917,0.11823 0.0638,0.065 0.11012,0.11823 0.1029,0.11823 -0.007,0 -0.0653,-0.0532 -0.12917,-0.11823 z m 25.044942,-0.53145 c 0.05419,-0.006 0.142861,-0.006 0.197049,0 0.05419,0.006 0.0099,0.0103 -0.09852,0.0103 -0.108377,0 -0.152714,-0.005 -0.09852,-0.0103 z m -0.783281,-0.27643 -0.07717,-0.0854 0.08539,0.0772 c 0.07959,0.0719 0.09746,0.0936 0.07717,0.0936 -0.0045,0 -0.04295,-0.0384 -0.08539,-0.0854 z m -22.989909,-0.13137 -0.05005,-0.0591 0.05912,0.05 c 0.03251,0.0275 0.05912,0.0541 0.05912,0.0591 0,0.021 -0.02115,0.005 -0.06818,-0.05 z m -9.5215416,-0.21675 c 0.0339,-0.0361 0.0676,-0.0657 0.0748,-0.0657 0.007,0 -0.0146,0.0295 -0.0486,0.0657 -0.0339,0.0361 -0.0676,0.0657 -0.0748,0.0657 -0.007,0 0.0146,-0.0296 0.0486,-0.0657 z m 30.5315496,-0.21238 c 0.0013,-0.0306 0.0075,-0.0368 0.01587,-0.0159 0.0076,0.019 0.0067,0.0416 -0.0021,0.0504 -0.0087,0.009 -0.01494,-0.007 -0.0138,-0.0345 z m -13.174034,-0.0963 c 0.0067,-0.0108 0.903416,-0.0197 1.992706,-0.0197 1.089289,0 1.986006,0.009 1.992705,0.0197 0.0067,0.0108 -0.890019,0.0197 -1.992705,0.0197 -1.102686,0 -1.999404,-0.009 -1.992706,-0.0197 z m 13.150809,-0.24303 c 5.75e-4,-0.0434 0.0064,-0.0579 0.01309,-0.0323 0.0067,0.0256 0.0062,0.061 -9.77e-4,0.0788 -0.0072,0.0178 -0.01265,-0.003 -0.01211,-0.0465 z m -2.348364,-3.39406 c 0.01897,-0.008 0.04163,-0.007 0.05036,0.002 0.0087,0.009 -0.0068,0.0149 -0.03448,0.0138 -0.03061,-0.001 -0.03683,-0.007 -0.01587,-0.0159 z m -15.154722,-0.54692 c -0.06382,-0.065 -0.110121,-0.11823 -0.102896,-0.11823 0.0072,0 0.06535,0.0532 0.12917,0.11823 0.06382,0.065 0.110121,0.11823 0.102896,0.11823 -0.0072,0 -0.06535,-0.0532 -0.12917,-0.11823 z m 14.051246,-0.87183 c 0.01897,-0.008 0.04163,-0.007 0.05036,0.002 0.0087,0.009 -0.0068,0.0149 -0.03448,0.0138 -0.03061,-0.001 -0.03683,-0.007 -0.01587,-0.0159 z m 0.353547,-0.0265 c 0.02556,-0.007 0.06103,-0.006 0.07882,9.8e-4 0.01779,0.007 -0.0031,0.0126 -0.04648,0.0121 -0.04335,-5e-4 -0.0579,-0.006 -0.03234,-0.0131 z m 0.69574,8.2e-4 c 0.01806,-0.007 0.04762,-0.007 0.06568,0 0.01806,0.007 0.0033,0.0133 -0.03284,0.0133 -0.03613,0 -0.05091,-0.006 -0.03284,-0.0133 z m -8.729277,-2.16328 -0.840743,-0.0142 0.832624,-0.006 c 0.533325,-0.004 0.838461,0.003 0.848862,0.0203 0.0089,0.0145 0.01258,0.0236 0.0081,0.0203 -0.0045,-0.003 -0.386453,-0.0124 -0.848861,-0.0203 z"
     id="path7" /><path
     style="fill:#9bd1e4;stroke-width:1"
     d="m 19.31153,26.146191 c 0.02556,-0.007 0.06103,-0.006 0.07882,9.8e-4 0.01779,0.007 -0.0031,0.0127 -0.04648,0.0121 -0.04335,-5.7e-4 -0.0579,-0.006 -0.03234,-0.0131 z m 0.65683,0 c 0.02556,-0.007 0.06103,-0.006 0.07882,9.8e-4 0.01779,0.007 -0.0031,0.0127 -0.04648,0.0121 -0.04335,-5.7e-4 -0.0579,-0.006 -0.03234,-0.0131 z m -0.87901,-0.026 c 0.01897,-0.008 0.04163,-0.007 0.05036,0.002 0.0087,0.009 -0.0068,0.0149 -0.03448,0.0138 -0.03061,-0.001 -0.03683,-0.007 -0.01587,-0.0159 z m 1.129748,0 c 0.01897,-0.008 0.04163,-0.007 0.05036,0.002 0.0087,0.009 -0.0068,0.0149 -0.03448,0.0138 -0.03061,-0.001 -0.03683,-0.007 -0.01587,-0.0159 z m -14.1629106,-0.0538 c 0.0614,-0.006 0.16191,-0.006 0.22333,0 0.0614,0.006 0.0112,0.0101 -0.11166,0.0101 -0.12283,0 -0.17308,-0.005 -0.11167,-0.0101 z m 1.20904,1.7e-4 c 0.0472,-0.006 0.11816,-0.006 0.15764,2.4e-4 0.0395,0.006 8.5e-4,0.0108 -0.0859,0.0106 -0.0867,-1.7e-4 -0.119,-0.005 -0.0718,-0.0109 z m -1.81332,-0.0258 c 0.0325,-0.006 0.0857,-0.006 0.11823,0 0.0325,0.006 0.006,0.0114 -0.0591,0.0114 -0.065,0 -0.0916,-0.005 -0.0591,-0.0114 z m 2.29941,3.3e-4 c 0.0256,-0.007 0.061,-0.006 0.0788,9.8e-4 0.0178,0.007 -0.003,0.0127 -0.0465,0.0121 -0.0433,-5.7e-4 -0.0579,-0.006 -0.0323,-0.0131 z m -2.6536,-0.0263 c 0.0256,-0.007 0.061,-0.006 0.0788,9.8e-4 0.0178,0.007 -0.003,0.0126 -0.0465,0.0121 -0.0434,-5.8e-4 -0.0579,-0.006 -0.0323,-0.0131 z m 2.93061,2.5e-4 c 0.019,-0.008 0.0416,-0.007 0.0504,0.002 0.009,0.009 -0.007,0.0149 -0.0345,0.0138 -0.0306,-10e-4 -0.0368,-0.007 -0.0159,-0.0159 z m -3.20698,-0.0257 c 0.0181,-0.007 0.0476,-0.007 0.0657,0 0.0181,0.007 0.003,0.0132 -0.0328,0.0132 -0.0361,0 -0.0509,-0.006 -0.0328,-0.0132 z m 3.41716,-5.8e-4 c 0.019,-0.008 0.0416,-0.007 0.0504,0.002 0.009,0.009 -0.007,0.0149 -0.0345,0.0138 -0.0306,-10e-4 -0.0368,-0.007 -0.0159,-0.0159 z m -3.59943,-0.0263 c 0.019,-0.008 0.0416,-0.007 0.0504,0.002 0.009,0.009 -0.007,0.0149 -0.0345,0.0138 -0.0306,-0.001 -0.0368,-0.007 -0.0159,-0.0159 z m 9.8964196,-3.55513 c 0,-1.97246 0.003,-2.77938 0.007,-1.79315 0.004,0.98623 0.004,2.60007 0,3.5863 -0.004,0.98623 -0.007,0.17931 -0.007,-1.79315 z M 4.0000174,21.251311 c 0,-2.53602 0.003,-3.57349 0.007,-2.30548 0.004,1.26801 0.004,3.34294 0,4.61095 -0.004,1.26801 -0.007,0.23055 -0.007,-2.30547 z m 18.1419516,3.87851 c 0,-0.005 0.02069,-0.0261 0.04598,-0.046 0.04167,-0.0327 0.0426,-0.0317 0.0099,0.01 -0.03432,0.0438 -0.0559,0.0577 -0.0559,0.0361 z m -2.55507,-0.40318 c 0.04696,-0.006 0.123812,-0.006 0.170776,0 0.04696,0.006 0.0085,0.0106 -0.08539,0.0106 -0.09393,0 -0.132352,-0.005 -0.08539,-0.0106 z m -12.8476016,-0.0792 c 0.0759,-0.005 0.2,-0.005 0.27587,0 0.0759,0.005 0.0138,0.01 -0.13794,0.01 -0.15173,0 -0.2138,-0.004 -0.13793,-0.01 z m -0.68311,-0.0254 c 0.0325,-0.006 0.0857,-0.006 0.11823,0 0.0325,0.006 0.006,0.0114 -0.0591,0.0114 -0.065,0 -0.0916,-0.005 -0.0591,-0.0114 z m 1.40612,3.3e-4 c 0.0256,-0.007 0.061,-0.006 0.0788,9.8e-4 0.0178,0.007 -0.003,0.0126 -0.0465,0.0121 -0.0434,-5.8e-4 -0.0579,-0.006 -0.0323,-0.0131 z m -1.74767,-0.0255 c 0.0181,-0.007 0.0476,-0.007 0.0657,0 0.0181,0.007 0.003,0.0133 -0.0329,0.0133 -0.0361,0 -0.0509,-0.006 -0.0328,-0.0133 z m 2.02468,-5.7e-4 c 0.019,-0.008 0.0416,-0.007 0.0504,0.002 0.009,0.009 -0.007,0.0149 -0.0345,0.0138 -0.0306,-10e-4 -0.0368,-0.007 -0.0159,-0.0159 z m 12.9576246,-0.22673 c 0,-0.005 0.03843,-0.0429 0.08539,-0.0854 l 0.08539,-0.0772 -0.07717,0.0854 c -0.07193,0.0796 -0.09361,0.0975 -0.09361,0.0772 z m -9.561375,-0.76903 c 10e-4,-0.0306 0.007,-0.0368 0.0159,-0.0159 0.008,0.019 0.007,0.0416 -0.002,0.0504 -0.009,0.009 -0.0149,-0.007 -0.0138,-0.0345 z m 0.0334,-0.43132 c 0,-0.12283 0.005,-0.17307 0.0101,-0.11166 0.006,0.0614 0.006,0.16191 0,0.22332 -0.006,0.0614 -0.0101,0.0112 -0.0101,-0.11166 z m -1.7610796,-0.0262 c 0,-0.0939 0.005,-0.13235 0.0106,-0.0854 0.006,0.047 0.006,0.12381 0,0.17078 -0.006,0.047 -0.0106,0.009 -0.0106,-0.0854 z m 13.6294656,-0.0416 c 0.0013,-0.0306 0.0075,-0.0368 0.01587,-0.0159 0.0076,0.019 0.0067,0.0416 -0.0021,0.0503 -0.0087,0.009 -0.01494,-0.007 -0.0138,-0.0345 z m -1.681486,-0.13137 c 0.0013,-0.0306 0.0075,-0.0368 0.01587,-0.0159 0.0076,0.019 0.0067,0.0416 -0.0021,0.0504 -0.0087,0.009 -0.01494,-0.007 -0.0138,-0.0345 z m -5.09396,-0.0766 c 5.4e-4,-0.0433 0.006,-0.0579 0.0131,-0.0323 0.007,0.0256 0.006,0.061 -9.8e-4,0.0788 -0.007,0.0178 -0.0126,-0.003 -0.0121,-0.0465 z m 6.804766,-0.0263 c 5.75e-4,-0.0433 0.0064,-0.0579 0.01309,-0.0323 0.0067,0.0256 0.0062,0.061 -9.77e-4,0.0788 -0.0072,0.0178 -0.01265,-0.003 -0.01211,-0.0465 z m -11.931086,-0.10728 c 0.001,-0.0306 0.007,-0.0368 0.0159,-0.0159 0.008,0.019 0.007,0.0416 -0.002,0.0504 -0.009,0.009 -0.0149,-0.007 -0.0138,-0.0345 z m 6.80878,-0.0372 c 0,-0.0506 0.005,-0.0713 0.012,-0.046 0.007,0.0253 0.007,0.0667 0,0.092 -0.007,0.0253 -0.012,0.005 -0.012,-0.046 z m 3.441794,-0.0263 c 0,-0.0506 0.0054,-0.0713 0.01202,-0.046 0.0066,0.0253 0.0066,0.0667 0,0.0919 -0.0066,0.0253 -0.01202,0.005 -0.01202,-0.046 z m -5.147024,-0.30214 c 1.1e-4,-0.10115 0.005,-0.13931 0.0105,-0.0848 0.006,0.0545 0.006,0.13727 -2.1e-4,0.18391 -0.006,0.0466 -0.0105,0.002 -0.0103,-0.0991 z m 6.855844,0.0131 c 0,-0.065 0.0051,-0.0916 0.01139,-0.0591 0.0063,0.0325 0.0063,0.0857 0,0.11823 -0.0063,0.0325 -0.01139,0.006 -0.01139,-0.0591 z m -14.0264136,-0.19048 -0.05,-0.0591 0.0591,0.05 c 0.0556,0.047 0.0711,0.0682 0.05,0.0682 -0.005,0 -0.0316,-0.0266 -0.0591,-0.0591 z m 12.3181246,-0.11166 c 2.95e-4,-0.0578 0.0057,-0.0784 0.01196,-0.0457 0.0063,0.0327 0.006,0.08 -5.34e-4,0.10509 -0.0066,0.0251 -0.01172,-0.002 -0.01143,-0.0594 z m -3.442325,-0.0394 c 0,-0.0506 0.005,-0.0713 0.012,-0.046 0.007,0.0253 0.007,0.0667 0,0.092 -0.007,0.0253 -0.012,0.005 -0.012,-0.046 z m 5.122306,-0.1445 c 5.75e-4,-0.0434 0.0064,-0.0579 0.01309,-0.0324 0.0067,0.0256 0.0062,0.061 -9.77e-4,0.0788 -0.0072,0.0178 -0.01265,-0.003 -0.01211,-0.0465 z m -6.805736,-0.0131 c 0,-0.0361 0.006,-0.0509 0.0132,-0.0328 0.007,0.0181 0.007,0.0476 0,0.0657 -0.007,0.0181 -0.0132,0.003 -0.0132,-0.0328 z m 5.09493,-0.0679 c 0.0013,-0.0306 0.0075,-0.0368 0.01587,-0.0159 0.0076,0.019 0.0067,0.0416 -0.0021,0.0504 -0.0087,0.009 -0.01494,-0.007 -0.0138,-0.0345 z m -3.38925,-0.0263 c 0.001,-0.0306 0.007,-0.0368 0.0159,-0.0159 0.008,0.019 0.007,0.0416 -0.002,0.0504 -0.009,0.009 -0.0149,-0.007 -0.0138,-0.0345 z m -10.0696396,-0.0552 c 0.019,-0.008 0.0416,-0.007 0.0504,0.002 0.009,0.009 -0.007,0.0149 -0.0345,0.0138 -0.0306,-0.001 -0.0368,-0.007 -0.0159,-0.0159 z m -0.25074,-0.0265 c 0.0256,-0.007 0.061,-0.006 0.0788,9.8e-4 0.0178,0.007 -0.003,0.0127 -0.0465,0.0121 -0.0434,-5.7e-4 -0.0579,-0.006 -0.0324,-0.0131 z m 8.6388996,-0.0497 c 0.001,-0.0306 0.007,-0.0368 0.0159,-0.0159 0.008,0.019 0.007,0.0416 -0.002,0.0504 -0.009,0.009 -0.0149,-0.007 -0.0138,-0.0345 z m 2.231148,-1.12435 c 0,-0.005 0.02069,-0.0261 0.04598,-0.046 0.04167,-0.0327 0.0426,-0.0317 0.0099,0.01 -0.03432,0.0438 -0.0559,0.0577 -0.0559,0.036 z M 6.0299374,20.364611 c 0.19147,-0.004 0.50478,-0.004 0.69624,0 0.19147,0.005 0.0348,0.008 -0.34812,0.008 -0.38293,0 -0.53959,-0.004 -0.34812,-0.008 z m 1.35357,-0.0248 c 0.0256,-0.007 0.061,-0.006 0.0788,9.8e-4 0.0178,0.007 -0.003,0.0127 -0.0465,0.0121 -0.0434,-5.7e-4 -0.0579,-0.006 -0.0323,-0.0131 z m 12.0474136,-0.2362 c 0.01897,-0.008 0.04163,-0.007 0.05036,0.002 0.0087,0.009 -0.0068,0.0149 -0.03448,0.0138 -0.03061,-0.001 -0.03683,-0.007 -0.01587,-0.0159 z m 0.446645,0 c 0.01897,-0.008 0.04163,-0.007 0.05036,0.002 0.0087,0.009 -0.0068,0.0149 -0.03448,0.0138 -0.03061,-0.001 -0.03683,-0.007 -0.01587,-0.0159 z M 8.9811774,19.265491 c 10e-4,-0.0306 0.007,-0.0368 0.0159,-0.0159 0.008,0.019 0.007,0.0416 -0.002,0.0503 -0.009,0.009 -0.0149,-0.007 -0.0138,-0.0345 z m 1.7117796,-0.0898 c 0,-0.0506 0.005,-0.0713 0.012,-0.046 0.007,0.0253 0.007,0.0667 0,0.0919 -0.007,0.0253 -0.012,0.005 -0.012,-0.046 z m -1.7096996,-0.26273 c 0,-0.0361 0.006,-0.0509 0.0132,-0.0328 0.007,0.0181 0.007,0.0476 0,0.0657 -0.007,0.0181 -0.0132,0.003 -0.0132,-0.0328 z m 1.7102296,-0.1445 c 3e-4,-0.0578 0.006,-0.0784 0.012,-0.0457 0.006,0.0327 0.006,0.08 -5.3e-4,0.10509 -0.007,0.0251 -0.0117,-0.002 -0.0114,-0.0594 z m 8.47306,-0.0831 c 0.01806,-0.007 0.04762,-0.007 0.06568,0 0.01806,0.007 0.0033,0.0132 -0.03284,0.0132 -0.03613,0 -0.05091,-0.006 -0.03284,-0.0132 z m 0.945836,0 c 0.01806,-0.007 0.04762,-0.007 0.06568,0 0.01806,0.007 0.0033,0.0132 -0.03284,0.0132 -0.03613,0 -0.05091,-0.006 -0.03284,-0.0132 z m -0.578011,-0.0283 c 0.07586,-0.005 0.200005,-0.005 0.275869,0 0.07586,0.005 0.01379,0.01 -0.137934,0.01 -0.151728,0 -0.213799,-0.004 -0.137935,-0.01 z M 5.7409374,17.870841 c 0.0181,-0.007 0.0476,-0.007 0.0657,0 0.0181,0.007 0.003,0.0133 -0.0328,0.0133 -0.0361,0 -0.0509,-0.006 -0.0328,-0.0133 z m 1.84076,-5.8e-4 c 0.019,-0.008 0.0416,-0.007 0.0504,0.002 0.009,0.009 -0.007,0.0149 -0.0345,0.0138 -0.0306,-0.001 -0.0368,-0.007 -0.0159,-0.0159 z m -1.52549,-0.0269 c 0.0325,-0.006 0.0857,-0.006 0.11823,0 0.0325,0.006 0.006,0.0114 -0.0591,0.0114 -0.065,0 -0.0916,-0.005 -0.0591,-0.0114 z m 1.27476,3.3e-4 c 0.0256,-0.007 0.061,-0.006 0.0788,9.8e-4 0.0178,0.007 -0.003,0.0127 -0.0465,0.0121 -0.0434,-5.7e-4 -0.0579,-0.006 -0.0323,-0.0131 z m 7.0998296,-0.37589 c 0.0262,-0.0289 0.0535,-0.0525 0.0607,-0.0525 0.007,0 -0.008,0.0236 -0.0344,0.0525 -0.0262,0.0289 -0.0535,0.0525 -0.0607,0.0525 -0.007,0 0.008,-0.0236 0.0344,-0.0525 z m -4.34963,-0.0985 -0.0905,-0.0985 0.0985,0.0905 c 0.0542,0.0498 0.0985,0.0941 0.0985,0.0985 0,0.0201 -0.0222,0.001 -0.10651,-0.0905 z m 2.60454,-0.46854 c 10e-4,-0.0306 0.007,-0.0368 0.0159,-0.0159 0.008,0.019 0.007,0.0416 -0.002,0.0504 -0.009,0.009 -0.0149,-0.007 -0.0138,-0.0345 z m 2.02848,-0.15545 c 1.9e-4,-0.0722 0.005,-0.0987 0.0113,-0.0588 0.006,0.0399 0.006,0.0991 -3.6e-4,0.13137 -0.006,0.0323 -0.0112,-3.3e-4 -0.011,-0.0726 z M 4.2187274,16.609131 c 0.019,-0.008 0.0416,-0.007 0.0504,0.002 0.009,0.009 -0.007,0.0149 -0.0345,0.0138 -0.0306,-0.001 -0.0368,-0.007 -0.0159,-0.0159 z m 8.4669796,-0.0237 c 10e-4,-0.0306 0.007,-0.0368 0.0159,-0.0159 0.008,0.019 0.007,0.0416 -0.002,0.0504 -0.009,0.009 -0.0149,-0.007 -0.0138,-0.0345 z m -8.1254296,-0.0289 c 0.019,-0.008 0.0416,-0.007 0.0504,0.002 0.009,0.009 -0.007,0.0149 -0.0345,0.0138 -0.0306,-10e-4 -0.0368,-0.007 -0.0159,-0.0159 z m 0.18227,-0.0257 c 0.0181,-0.007 0.0476,-0.007 0.0657,0 0.0181,0.007 0.003,0.0133 -0.0328,0.0133 -0.0361,0 -0.0509,-0.006 -0.0328,-0.0133 z m 0.23646,-0.0263 c 0.0181,-0.007 0.0476,-0.007 0.0657,0 0.0181,0.007 0.003,0.0133 -0.0328,0.0133 -0.0361,0 -0.0509,-0.006 -0.0328,-0.0133 z m 0.27637,-0.0271 c 0.0256,-0.007 0.061,-0.006 0.0788,9.7e-4 0.0178,0.007 -0.003,0.0126 -0.0465,0.0121 -0.0434,-5.7e-4 -0.0579,-0.006 -0.0323,-0.0131 z m 2.50859,8.2e-4 c 0.0181,-0.007 0.0476,-0.007 0.0657,0 0.0181,0.007 0.003,0.0132 -0.0328,0.0132 -0.0361,0 -0.0509,-0.006 -0.0328,-0.0132 z m -2.1544,-0.0274 c 0.0325,-0.006 0.0857,-0.006 0.11823,0 0.0325,0.006 0.006,0.0114 -0.0591,0.0114 -0.065,0 -0.0916,-0.005 -0.0591,-0.0114 z m 1.87903,3.3e-4 c 0.0256,-0.007 0.061,-0.006 0.0788,9.8e-4 0.0178,0.007 -0.003,0.0126 -0.0465,0.0121 -0.0434,-5.8e-4 -0.0579,-0.006 -0.0324,-0.0131 z m -1.1317,-0.0277 c 0.15454,-0.005 0.41464,-0.005 0.57801,-3e-5 0.16337,0.005 0.0369,0.008 -0.28098,0.008 -0.31791,2e-5 -0.45157,-0.004 -0.29703,-0.008 z m 8.0714096,-0.40734 -0.05,-0.0591 0.0591,0.05 c 0.0325,0.0275 0.0591,0.0541 0.0591,0.0591 0,0.021 -0.0212,0.006 -0.0682,-0.05 z"
     id="path6" /><path
     style="fill:#76c1db;stroke-width:1"
     d="m 17.461987,25.382771 c -0.0327,-0.0417 -0.0318,-0.0426 0.01,-0.01 0.0253,0.0198 0.046,0.0405 0.046,0.046 0,0.0216 -0.0216,0.008 -0.0559,-0.0361 z m 4.574889,-0.15107 c 0.04902,-0.0506 0.09504,-0.092 0.102265,-0.092 0.0072,0 -0.02697,0.0414 -0.07599,0.092 -0.04902,0.0506 -0.09504,0.092 -0.102265,0.092 -0.0072,0 0.02697,-0.0414 0.07599,-0.092 z m -11.586489,-0.18391 c 0.0785,-0.0795 0.14862,-0.1445 0.15584,-0.1445 0.007,0 -0.0511,0.065 -0.12957,0.1445 -0.0785,0.0795 -0.14862,0.1445 -0.15584,0.1445 -0.007,0 0.0511,-0.065 0.12957,-0.1445 z m 6.67005,-0.007 c -0.0327,-0.0417 -0.0318,-0.0426 0.01,-0.01 0.0253,0.0198 0.046,0.0405 0.046,0.046 0,0.0216 -0.0216,0.008 -0.0559,-0.0361 z m 3.734144,-0.83096 c 0,-0.005 0.02069,-0.0261 0.04598,-0.046 0.04167,-0.0327 0.0426,-0.0317 0.0099,0.01 -0.03432,0.0438 -0.0559,0.0577 -0.0559,0.0361 z m -10.300514,-2.68965 -0.0905,-0.0985 0.0985,0.0906 c 0.0542,0.0498 0.0985,0.0941 0.0985,0.0985 0,0.0201 -0.0222,0.001 -0.10651,-0.0905 z m 7.883378,-0.88351 c 0,-0.005 0.02069,-0.0261 0.04598,-0.046 0.04167,-0.0327 0.0426,-0.0318 0.0099,0.01 -0.03432,0.0438 -0.0559,0.0577 -0.0559,0.036 z m 2.338317,-0.10831 c -0.06382,-0.065 -0.110122,-0.11823 -0.102897,-0.11823 0.0072,0 0.06535,0.0532 0.12917,0.11823 0.06382,0.065 0.110122,0.11823 0.102897,0.11823 -0.0072,0 -0.06535,-0.0532 -0.12917,-0.11823 z m -10.666925,-0.0788 c 0.049,-0.0506 0.095,-0.0919 0.10226,-0.0919 0.007,0 -0.027,0.0414 -0.076,0.0919 -0.049,0.0506 -0.095,0.092 -0.10226,0.092 -0.007,0 0.027,-0.0414 0.076,-0.092 z m 8.486248,0.0295 c 0,-0.005 0.02069,-0.0261 0.04598,-0.046 0.04167,-0.0327 0.0426,-0.0317 0.0099,0.01 -0.03432,0.0438 -0.0559,0.0577 -0.0559,0.036 z m 3.583798,-0.73229 -0.05005,-0.0591 0.05911,0.05 c 0.03251,0.0275 0.05912,0.0541 0.05912,0.0591 0,0.021 -0.02114,0.005 -0.06818,-0.05 z m -4.897456,-0.13794 c 0.0931,-0.0939 0.17517,-0.17077 0.18239,-0.17077 0.007,0 -0.063,0.0768 -0.15612,0.17077 -0.0931,0.0939 -0.17517,0.17078 -0.18239,0.17078 -0.007,0 0.063,-0.0768 0.15612,-0.17078 z m 4.594459,-0.16421 c -0.03268,-0.0417 -0.03175,-0.0426 0.0099,-0.01 0.04377,0.0343 0.05768,0.0559 0.03606,0.0559 -0.0055,0 -0.02615,-0.0207 -0.04598,-0.046 z m -8.931529,-1.99676 -0.0637,-0.0722 0.0722,0.0637 c 0.0397,0.035 0.0723,0.0676 0.0723,0.0722 0,0.0206 -0.0213,0.004 -0.0808,-0.0637 z m 0.002,-1.41219 c 0.0339,-0.0361 0.0676,-0.0657 0.0748,-0.0657 0.007,0 -0.0146,0.0296 -0.0486,0.0657 -0.0339,0.0361 -0.0676,0.0657 -0.0748,0.0657 -0.007,0 0.0146,-0.0296 0.0486,-0.0657 z"
     id="path5" /><path
     style="fill:#ababac;stroke-width:1"
     d="m 5.7425574,32.215571 c 0.019,-0.008 0.0416,-0.007 0.0504,0.002 0.009,0.009 -0.007,0.0149 -0.0345,0.0138 -0.0306,-0.001 -0.0368,-0.007 -0.0159,-0.0159 z m 0.57801,0 c 0.019,-0.008 0.0416,-0.007 0.0504,0.002 0.009,0.009 -0.007,0.0149 -0.0345,0.0138 -0.0306,-0.001 -0.0368,-0.007 -0.0159,-0.0159 z m 6.4106596,0 c 0.019,-0.008 0.0416,-0.007 0.0504,0.002 0.009,0.009 -0.007,0.0149 -0.0345,0.0138 -0.0306,-0.001 -0.0368,-0.007 -0.0159,-0.0159 z m 28.112347,0 c 0.01897,-0.008 0.04163,-0.007 0.05036,0.002 0.0087,0.009 -0.0068,0.0149 -0.03448,0.0138 -0.03061,-0.001 -0.03683,-0.007 -0.01587,-0.0159 z m -14.616725,-2.42547 c 0,-1.17769 0.0032,-1.65948 0.0072,-1.07063 0.0039,0.58885 0.0039,1.55242 0,2.14127 -0.0039,0.58885 -0.0072,0.10706 -0.0072,-1.07064 z m 14.746449,1.82173 c 0.01806,-0.007 0.04762,-0.007 0.06568,0 0.01806,0.007 0.0033,0.0132 -0.03284,0.0132 -0.03613,0 -0.0509,-0.006 -0.03284,-0.0132 z m 0.290648,-5.8e-4 c 0.01897,-0.008 0.04163,-0.007 0.05036,0.002 0.0087,0.009 -0.0068,0.0149 -0.03448,0.0138 -0.03061,-0.001 -0.03683,-0.007 -0.01587,-0.0159 z m -20.729569,-0.0263 c 0.01897,-0.008 0.04163,-0.007 0.05036,0.002 0.0087,0.009 -0.0068,0.0149 -0.03448,0.0138 -0.03061,-10e-4 -0.03683,-0.007 -0.01587,-0.0159 z m 0.289005,0 c 0.01897,-0.008 0.04163,-0.007 0.05036,0.002 0.0087,0.009 -0.0068,0.0149 -0.03448,0.0138 -0.03061,-10e-4 -0.03683,-0.007 -0.01587,-0.0159 z M 4.0943474,31.324841 c 10e-4,-0.0306 0.007,-0.0368 0.0159,-0.0159 0.008,0.019 0.007,0.0416 -0.002,0.0503 -0.009,0.009 -0.0149,-0.007 -0.0138,-0.0345 z m 14.3552646,-2.38865 c 5e-6,-0.70806 0.0034,-0.99394 0.0075,-0.6353 0.0041,0.35865 0.0041,0.93797 -9e-6,1.28739 -0.0041,0.34942 -0.0075,0.056 -0.0075,-0.65209 z m 0.676059,1.1823 c 5.34e-4,-0.0434 0.0064,-0.0579 0.01309,-0.0323 0.0067,0.0256 0.0062,0.061 -9.74e-4,0.0788 -0.0072,0.0178 -0.01265,-0.003 -0.01211,-0.0465 z m 20.247766,-0.0987 c 0.01094,-0.0109 0.823184,-0.0168 1.804978,-0.0131 l 1.78508,0.007 -1.804977,0.0131 c -0.992738,0.007 -1.796023,0.004 -1.785081,-0.007 z m -28.78754,-0.0721 c 0,-0.0361 0.006,-0.0509 0.0133,-0.0328 0.007,0.0181 0.007,0.0476 0,0.0657 -0.007,0.0181 -0.0133,0.003 -0.0133,-0.0328 z m 21.15463,-0.15764 c 0,-0.10837 0.0046,-0.15271 0.01031,-0.0985 0.0057,0.0542 0.0057,0.14286 0,0.19705 -0.0057,0.0542 -0.01031,0.01 -0.01031,-0.0985 z m -16.94719,0 c 0,-0.0795 0.005,-0.11199 0.0109,-0.0722 0.006,0.0397 0.006,0.10477 0,0.14451 -0.006,0.0397 -0.0109,0.007 -0.0109,-0.0723 z m -3.55061,0 c 0,-0.0361 0.006,-0.0509 0.0133,-0.0328 0.007,0.0181 0.007,0.0476 0,0.0657 -0.007,0.0181 -0.0133,0.003 -0.0133,-0.0328 z m -0.65683,-0.15764 c 0,-0.0361 0.006,-0.0509 0.0133,-0.0328 0.007,0.0181 0.007,0.0476 0,0.0657 -0.007,0.0181 -0.0133,0.003 -0.0133,-0.0328 z m -6.3076396,-0.85606 c 10e-4,-0.0306 0.007,-0.0368 0.0159,-0.0159 0.008,0.019 0.007,0.0416 -0.002,0.0504 -0.009,0.009 -0.0149,-0.007 -0.0138,-0.0345 z m 31.2827586,-0.10717 c 0.01806,-0.007 0.04762,-0.007 0.06568,0 0.01806,0.007 0.0033,0.0133 -0.03284,0.0133 -0.03612,0 -0.0509,-0.006 -0.03284,-0.0133 z M 4.2782574,28.566161 c 10e-4,-0.0306 0.007,-0.0368 0.0159,-0.0159 0.008,0.019 0.007,0.0416 -0.002,0.0504 -0.009,0.009 -0.0149,-0.007 -0.0138,-0.0345 z m 24.4517216,-0.58008 c 0.01806,-0.007 0.04762,-0.007 0.06568,0 0.01806,0.007 0.0033,0.0132 -0.03284,0.0132 -0.03612,0 -0.0509,-0.006 -0.03284,-0.0132 z m -15.763462,-0.0279 c 0.0472,-0.006 0.11816,-0.006 0.15764,2.5e-4 0.0395,0.006 8.4e-4,0.0108 -0.0859,0.0106 -0.0867,-1.6e-4 -0.119,-0.005 -0.0718,-0.0109 z m 21.018576,0 c 0.04722,-0.006 0.11816,-0.006 0.157639,2.5e-4 0.03948,0.006 8.46e-4,0.0108 -0.08586,0.0106 -0.0867,-1.6e-4 -0.119003,-0.005 -0.07178,-0.0109 z m -4.796779,-0.25683 c 5.74e-4,-0.0433 0.0064,-0.0579 0.01309,-0.0323 0.0067,0.0256 0.0062,0.061 -9.77e-4,0.0788 -0.0072,0.0178 -0.01265,-0.003 -0.01211,-0.0465 z m -10.442158,-0.31954 c 0.01806,-0.007 0.04762,-0.007 0.06568,0 0.01806,0.007 0.0033,0.0133 -0.03284,0.0133 -0.03612,0 -0.0509,-0.006 -0.03284,-0.0133 z m 3.783343,0 c 0.01806,-0.007 0.04762,-0.007 0.06568,0 0.01806,0.007 0.0033,0.0133 -0.03284,0.0133 -0.03613,0 -0.05091,-0.006 -0.03284,-0.0133 z m 4.007166,-8.2e-4 c 0.02556,-0.007 0.06103,-0.006 0.07882,9.8e-4 0.01779,0.007 -0.0031,0.0126 -0.04648,0.0121 -0.04335,-5.8e-4 -0.05791,-0.006 -0.03234,-0.0131 z m 1.786079,-0.0531 c 0.03974,-0.006 0.104764,-0.006 0.144503,0 0.03974,0.006 0.0072,0.0109 -0.07225,0.0109 -0.07948,0 -0.111989,-0.005 -0.07225,-0.0109 z m 14.254863,-1.2077 c 0.01897,-0.008 0.04163,-0.007 0.05036,0.002 0.0087,0.009 -0.0068,0.0149 -0.03448,0.0138 -0.03061,-0.001 -0.03683,-0.007 -0.01587,-0.0159 z m -0.394099,-1.41876 c 0.01897,-0.008 0.04163,-0.007 0.05036,0.002 0.0087,0.009 -0.0068,0.0149 -0.03448,0.0138 -0.03061,-0.001 -0.03683,-0.007 -0.01587,-0.0159 z m 0.445003,5.8e-4 c 0.01806,-0.007 0.04762,-0.007 0.06568,0 0.01806,0.007 0.0033,0.0132 -0.03284,0.0132 -0.03613,0 -0.05091,-0.006 -0.03284,-0.0132 z m -3.086157,-1.36197 c 1.65e-4,-0.0722 0.0053,-0.0987 0.01134,-0.0587 0.006,0.0399 0.0059,0.099 -3.28e-4,0.13136 -0.0063,0.0323 -0.01121,-3.3e-4 -0.01101,-0.0726 z m 1.660023,-1.56326 c 0,-0.85979 0.0033,-1.21152 0.0074,-0.78163 0.004,0.4299 0.004,1.13337 0,1.56326 -0.004,0.4299 -0.0074,0.0782 -0.0074,-0.78163 z m -4.432793,-1.67261 c 0.01806,-0.007 0.04762,-0.007 0.06568,0 0.01806,0.007 0.0033,0.0132 -0.03284,0.0132 -0.03612,0 -0.0509,-0.006 -0.03284,-0.0132 z m 4.432479,-2.34719 c 0,-0.59969 0.0034,-0.84501 0.0077,-0.54517 0.0042,0.29984 0.0042,0.7905 0,1.09034 -0.0042,0.29984 -0.0077,0.0545 -0.0077,-0.54517 z m -5.035121,0.95416 c 0.01897,-0.008 0.04163,-0.007 0.05036,0.002 0.0087,0.009 -0.0068,0.0149 -0.03448,0.0138 -0.03061,-0.001 -0.03683,-0.007 -0.01587,-0.0159 z m 0.431866,-0.0271 c 0.03974,-0.006 0.104764,-0.006 0.144503,0 0.03974,0.006 0.0072,0.0109 -0.07225,0.0109 -0.07948,0 -0.111989,-0.005 -0.07225,-0.0109 z m 0.420872,5.7e-4 c 0.02556,-0.007 0.06103,-0.006 0.07882,9.8e-4 0.01779,0.007 -0.0031,0.0126 -0.04648,0.0121 -0.04335,-5.7e-4 -0.0579,-0.006 -0.03234,-0.0131 z"
     id="path4" /><path
     style="fill:#878789;stroke-width:1"
     d="m 5.8197374,32.216111 c 0.0181,-0.007 0.0476,-0.007 0.0657,0 0.0181,0.007 0.003,0.0133 -0.0328,0.0133 -0.0361,0 -0.0509,-0.006 -0.0328,-0.0133 z m 0.39409,0 c 0.0181,-0.007 0.0476,-0.007 0.0657,0 0.0181,0.007 0.003,0.0133 -0.0329,0.0133 -0.0361,0 -0.0509,-0.006 -0.0328,-0.0133 z m 6.5945796,0 c 0.0181,-0.007 0.0476,-0.007 0.0657,0 0.0181,0.007 0.003,0.0133 -0.0328,0.0133 -0.0361,0 -0.0509,-0.006 -0.0328,-0.0133 z m 0.3941,0 c 0.0181,-0.007 0.0476,-0.007 0.0657,0 0.0181,0.007 0.003,0.0133 -0.0328,0.0133 -0.0361,0 -0.0509,-0.006 -0.0328,-0.0133 z m 20.703296,0 c 0.01806,-0.007 0.04762,-0.007 0.06568,0 0.01806,0.007 0.0033,0.0133 -0.03284,0.0133 -0.03613,0 -0.05091,-0.006 -0.03284,-0.0133 z m 0.394098,0 c 0.01806,-0.007 0.04762,-0.007 0.06568,0 0.01806,0.007 0.0033,0.0133 -0.03284,0.0133 -0.03613,0 -0.0509,-0.006 -0.03284,-0.0133 z m 6.620851,0 c 0.01806,-0.007 0.04762,-0.007 0.06568,0 0.01806,0.007 0.0033,0.0133 -0.03284,0.0133 -0.03612,0 -0.0509,-0.006 -0.03284,-0.0133 z m 0.369467,-5.7e-4 c 0.01897,-0.008 0.04163,-0.007 0.05036,0.002 0.0087,0.009 -0.0068,0.0149 -0.03448,0.0138 -0.03061,-10e-4 -0.03683,-0.007 -0.01587,-0.0159 z m -18.993962,-0.1331 c -0.03268,-0.0417 -0.03175,-0.0426 0.0099,-0.01 0.02529,0.0198 0.04598,0.0405 0.04598,0.046 0,0.0216 -0.02157,0.008 -0.0559,-0.0361 z M 7.4815174,31.778651 c 0,-0.005 0.0384,-0.043 0.0854,-0.0854 l 0.0854,-0.0772 -0.0772,0.0854 c -0.0719,0.0796 -0.0936,0.0975 -0.0936,0.0772 z m 11.5587976,-0.14285 -0.09054,-0.0985 0.09852,0.0906 c 0.0917,0.0843 0.110604,0.1065 0.09054,0.1065 -0.0044,0 -0.04873,-0.0443 -0.09853,-0.0985 z m 3.075381,0.007 c 0.04902,-0.0506 0.09504,-0.092 0.102264,-0.092 0.0072,0 -0.02697,0.0414 -0.07599,0.092 -0.04902,0.0506 -0.09504,0.0919 -0.102264,0.0919 -0.0072,0 0.02697,-0.0414 0.07599,-0.0919 z m 13.583254,0.0295 c 0,-0.005 0.02069,-0.0262 0.04598,-0.046 0.04167,-0.0327 0.0426,-0.0318 0.0099,0.01 -0.03432,0.0438 -0.0559,0.0577 -0.0559,0.0361 z m -20.940853,-0.12802 c 0.10888,-0.116 0.13246,-0.13686 0.13246,-0.11713 0,0.004 -0.0562,0.0604 -0.12479,0.1248 l -0.1248,0.11713 z m -8.8062996,0.0661 c 0.0618,-0.006 0.15637,-0.005 0.21018,1.6e-4 0.0538,0.006 0.003,0.0102 -0.11235,0.0101 -0.11561,-8e-5 -0.15963,-0.005 -0.0978,-0.0103 z m 6.9879796,2.4e-4 c 0.047,-0.006 0.12381,-0.006 0.17077,0 0.047,0.006 0.009,0.0106 -0.0854,0.0106 -0.0939,0 -0.13236,-0.005 -0.0854,-0.0106 z m 21.123665,0 c 0.04696,-0.006 0.123813,-0.006 0.170776,0 0.04696,0.006 0.0085,0.0106 -0.08539,0.0106 -0.09393,0 -0.132351,-0.005 -0.08539,-0.0106 z m 5.325242,-0.0664 -0.07717,-0.0854 0.08539,0.0772 c 0.07959,0.0719 0.09746,0.0936 0.07717,0.0936 -0.0045,0 -0.04295,-0.0384 -0.08539,-0.0854 z m -28.113187,0 -0.0501,-0.0591 0.0591,0.05 c 0.0556,0.047 0.0711,0.0682 0.05,0.0682 -0.005,0 -0.0316,-0.0266 -0.0591,-0.0591 z m 9.18006,0.0412 c 0.01897,-0.008 0.04163,-0.007 0.05036,0.002 0.0087,0.009 -0.0068,0.0149 -0.03448,0.0138 -0.03061,-10e-4 -0.03683,-0.007 -0.01587,-0.0159 z m 11.969881,-0.0411 -0.05005,-0.0591 0.05911,0.05 c 0.05555,0.047 0.07108,0.0682 0.05005,0.0682 -0.005,0 -0.03159,-0.0266 -0.05911,-0.0591 z m 3.383727,-0.0854 c 5.75e-4,-0.0433 0.0064,-0.0579 0.01309,-0.0323 0.0067,0.0256 0.0062,0.061 -9.69e-4,0.0788 -0.0072,0.0178 -0.01265,-0.003 -0.01211,-0.0465 z m -24.046528,-0.34812 -0.0906,-0.0985 0.0985,0.0905 c 0.0542,0.0498 0.0985,0.0941 0.0985,0.0985 0,0.0201 -0.0222,10e-4 -0.1065,-0.0906 z m 21.135719,0.0131 -0.05005,-0.0591 0.05912,0.05 c 0.05555,0.047 0.07107,0.0682 0.05005,0.0682 -0.005,0 -0.03159,-0.0266 -0.05911,-0.0591 z m 6.962403,0 -0.05005,-0.0591 0.05912,0.05 c 0.05555,0.047 0.07108,0.0682 0.05005,0.0682 -0.005,0 -0.03159,-0.0266 -0.05911,-0.0591 z m -32.7753316,-0.69624 -0.0637,-0.0722 0.0723,0.0637 c 0.0675,0.0595 0.0843,0.0808 0.0637,0.0808 -0.005,0 -0.0372,-0.0325 -0.0722,-0.0722 z m 12.0371956,-0.20581 c 0.0013,-0.0306 0.0075,-0.0368 0.01587,-0.0159 0.0076,0.019 0.0067,0.0416 -0.0021,0.0504 -0.0087,0.009 -0.01494,-0.007 -0.0138,-0.0345 z m -11.5374356,-0.18829 -0.0905,-0.0985 0.0985,0.0905 c 0.0542,0.0498 0.0985,0.0941 0.0985,0.0985 0,0.0201 -0.0222,10e-4 -0.10651,-0.0905 z m 31.1372566,0.0306 c 0.0013,-0.0306 0.0075,-0.0368 0.01587,-0.0159 0.0076,0.019 0.0067,0.0416 -0.0021,0.0504 -0.0087,0.009 -0.01494,-0.007 -0.0138,-0.0345 z m -23.278067,-0.0263 c 0.001,-0.0306 0.007,-0.0368 0.0159,-0.0159 0.008,0.019 0.007,0.0416 -0.002,0.0503 -0.009,0.009 -0.0149,-0.007 -0.0138,-0.0345 z m -0.65683,-0.0788 c 10e-4,-0.0306 0.007,-0.0368 0.0159,-0.0159 0.008,0.019 0.007,0.0416 -0.002,0.0503 -0.009,0.009 -0.0149,-0.007 -0.0138,-0.0345 z m -3.54384,-0.0504 c 5.3e-4,-0.0433 0.006,-0.0579 0.0131,-0.0323 0.007,0.0256 0.006,0.061 -9.7e-4,0.0788 -0.007,0.0178 -0.0126,-0.003 -0.0121,-0.0465 z m 21.152691,-0.11823 c 0,-0.0795 0.0049,-0.11199 0.01095,-0.0722 0.006,0.0397 0.006,0.10477 0,0.14451 -0.006,0.0397 -0.01095,0.007 -0.01095,-0.0723 z m -21.807491,0 c 0,-0.065 0.005,-0.0916 0.0114,-0.0591 0.006,0.0325 0.006,0.0857 0,0.11823 -0.006,0.0325 -0.0114,0.006 -0.0114,-0.0591 z m 0.6548,-0.11823 c 5.3e-4,-0.0433 0.006,-0.0579 0.0131,-0.0323 0.007,0.0256 0.006,0.061 -9.7e-4,0.0788 -0.007,0.0178 -0.0126,-0.003 -0.0121,-0.0465 z m 3.54384,-0.0547 c 10e-4,-0.0306 0.007,-0.0368 0.0159,-0.0159 0.008,0.019 0.007,0.0416 -0.002,0.0503 -0.009,0.009 -0.0149,-0.007 -0.0138,-0.0345 z m 0.65683,-0.0525 c 0.001,-0.0306 0.007,-0.0368 0.0159,-0.0159 0.008,0.019 0.007,0.0416 -0.002,0.0504 -0.009,0.009 -0.0149,-0.007 -0.0138,-0.0345 z m 23.278067,-0.0525 c 0.0013,-0.0306 0.0075,-0.0368 0.01587,-0.0159 0.0076,0.019 0.0067,0.0416 -0.0021,0.0504 -0.0087,0.009 -0.01494,-0.007 -0.0138,-0.0345 z m -34.1343366,-0.0832 c -0.0327,-0.0417 -0.0318,-0.0426 0.01,-0.01 0.0438,0.0343 0.0577,0.0559 0.0361,0.0559 -0.005,0 -0.0262,-0.0207 -0.046,-0.046 z m -0.3068,-0.75536 c 5.7e-4,-0.0433 0.006,-0.0579 0.0131,-0.0323 0.007,0.0256 0.006,0.061 -9.7e-4,0.0788 -0.007,0.0178 -0.0126,-0.003 -0.0121,-0.0465 z m 0.65378,0.0241 c 0.001,-0.0306 0.007,-0.0368 0.0159,-0.0159 0.008,0.019 0.007,0.0416 -0.002,0.0504 -0.009,0.009 -0.0149,-0.007 -0.0138,-0.0345 z m 0,-0.1051 c 0.001,-0.0306 0.007,-0.0368 0.0159,-0.0159 0.008,0.019 0.007,0.0416 -0.002,0.0504 -0.009,0.009 -0.0149,-0.007 -0.0138,-0.0345 z m 2.50045,-0.029 c 0.0253,-0.007 0.0667,-0.007 0.0919,0 0.0253,0.007 0.005,0.012 -0.046,0.012 -0.0506,0 -0.0713,-0.005 -0.046,-0.012 z m 4.3274096,-0.0936 c 0.10888,-0.116 0.13247,-0.13685 0.13247,-0.11713 0,0.004 -0.0562,0.0604 -0.1248,0.1248 l -0.1248,0.11713 z m -4.0975196,0.0492 c 0,-0.005 0.0207,-0.0262 0.046,-0.046 0.0417,-0.0327 0.0426,-0.0317 0.01,0.01 -0.0343,0.0438 -0.0559,0.0577 -0.0559,0.0361 z m 25.1434686,0 c 0,-0.005 0.02069,-0.0262 0.04598,-0.046 0.04167,-0.0327 0.0426,-0.0317 0.0099,0.01 -0.03432,0.0438 -0.0559,0.0577 -0.0559,0.0361 z m 2.42862,-0.0755 -0.07717,-0.0854 0.08539,0.0772 c 0.07959,0.0719 0.09746,0.0936 0.07717,0.0936 -0.0045,0 -0.04295,-0.0384 -0.08539,-0.0854 z m -28.1238286,-0.0591 c -0.0638,-0.065 -0.11012,-0.11823 -0.1029,-0.11823 0.007,0 0.0654,0.0532 0.12917,0.11823 0.0638,0.065 0.11013,0.11823 0.1029,0.11823 -0.007,0 -0.0654,-0.0532 -0.12917,-0.11823 z m 32.7495676,0.0131 c 0.05644,-0.0578 0.108532,-0.10509 0.115757,-0.10509 0.0072,0 -0.03304,0.0473 -0.08948,0.10509 -0.05644,0.0578 -0.108531,0.1051 -0.115757,0.1051 -0.0072,0 0.03304,-0.0473 0.08948,-0.1051 z m -6.89672,-0.0362 c 0,-0.005 0.02069,-0.0262 0.04598,-0.046 0.04167,-0.0327 0.0426,-0.0318 0.0099,0.01 -0.03432,0.0438 -0.0559,0.0577 -0.0559,0.0361 z m -18.221468,-0.3382 -0.13037,-0.13793 0.13793,0.13037 c 0.12817,0.12115 0.14998,0.14549 0.13038,0.14549 -0.004,0 -0.0662,-0.0621 -0.13794,-0.13793 z m 24.500767,0.12801 c 0,-0.005 0.02069,-0.0261 0.04598,-0.046 0.04167,-0.0327 0.0426,-0.0317 0.0099,0.01 -0.03432,0.0438 -0.0559,0.0577 -0.0559,0.036 z m -27.967837,-0.12144 c 0.0564,-0.0578 0.10853,-0.10509 0.11575,-0.10509 0.007,0 -0.033,0.0473 -0.0895,0.10509 -0.0564,0.0578 -0.10853,0.10509 -0.11576,0.10509 -0.007,0 0.033,-0.0473 0.0895,-0.10509 z m 21.161976,-0.0328 c 0.108875,-0.116 0.132464,-0.13686 0.132464,-0.11713 0,0.004 -0.05616,0.0604 -0.124798,0.12479 l -0.124797,0.11713 z m 10.179474,0.0263 -0.05005,-0.0591 0.05911,0.05 c 0.05555,0.047 0.07108,0.0682 0.05005,0.0682 -0.005,0 -0.03159,-0.0266 -0.05912,-0.0591 z m -6.975032,-0.0394 -0.06369,-0.0722 0.07225,0.0637 c 0.03974,0.035 0.07225,0.0675 0.07225,0.0722 0,0.0206 -0.02128,0.004 -0.08081,-0.0637 z m -6.796207,0.002 c 0.02529,-0.007 0.06667,-0.007 0.09196,0 0.02529,0.007 0.0046,0.012 -0.04598,0.012 -0.05058,0 -0.07127,-0.005 -0.04598,-0.012 z m -16.011881,-0.0261 c 0.019,-0.008 0.0416,-0.007 0.0503,0.002 0.009,0.009 -0.007,0.0149 -0.0345,0.0138 -0.0306,-0.001 -0.0368,-0.007 -0.0159,-0.0159 z m 15.460144,-8.7e-4 c 0.03974,-0.006 0.104764,-0.006 0.144502,0 0.03974,0.006 0.0072,0.011 -0.07225,0.011 -0.07948,0 -0.111989,-0.005 -0.07225,-0.011 z m 14.165336,-0.0928 -0.05005,-0.0591 0.05912,0.05 c 0.05555,0.047 0.07107,0.0682 0.05005,0.0682 -0.005,0 -0.03159,-0.0266 -0.05912,-0.0591 z M 5.7425574,27.355971 c 0.019,-0.008 0.0416,-0.007 0.0504,0.002 0.009,0.009 -0.007,0.0149 -0.0345,0.0138 -0.0306,-10e-4 -0.0368,-0.007 -0.0159,-0.0159 z m 7.0149496,0 c 0.019,-0.008 0.0416,-0.007 0.0504,0.002 0.009,0.009 -0.007,0.0149 -0.0345,0.0138 -0.0306,-10e-4 -0.0368,-0.007 -0.0159,-0.0159 z m 0.52546,0 c 0.019,-0.008 0.0416,-0.007 0.0504,0.002 0.009,0.009 -0.007,0.0149 -0.0345,0.0138 -0.0306,-10e-4 -0.0368,-0.007 -0.0159,-0.0159 z m 20.493112,0 c 0.01897,-0.008 0.04163,-0.007 0.05036,0.002 0.0087,0.009 -0.0068,0.0149 -0.03448,0.0138 -0.03061,-10e-4 -0.03683,-0.007 -0.01587,-0.0159 z m 6.962402,0 c 0.01897,-0.008 0.04163,-0.007 0.05036,0.002 0.0087,0.009 -0.0068,0.0149 -0.03448,0.0138 -0.03061,-10e-4 -0.03683,-0.007 -0.01587,-0.0159 z m 0.525465,0 c 0.01897,-0.008 0.04163,-0.007 0.05036,0.002 0.0087,0.009 -0.0068,0.0149 -0.03448,0.0138 -0.03061,-10e-4 -0.03683,-0.007 -0.01587,-0.0159 z m 0.563732,-1.2351 c 0.02556,-0.007 0.06103,-0.006 0.07882,9.8e-4 0.01779,0.007 -0.0031,0.0126 -0.04648,0.0121 -0.04335,-5.8e-4 -0.0579,-0.006 -0.03234,-0.0131 z m 0.643194,8.2e-4 c 0.01806,-0.007 0.04762,-0.007 0.06568,0 0.01806,0.007 0.0033,0.0133 -0.03284,0.0133 -0.03612,0 -0.0509,-0.006 -0.03284,-0.0133 z m -8.335567,-3.54263 c 0,-1.87854 0.0031,-2.64316 0.007,-1.69915 0.0038,0.944 0.0038,2.48098 -10e-7,3.41552 -0.0038,0.93453 -0.007,0.16216 -0.007,-1.71637 z m 6.094539,2.92289 -0.103857,-0.11166 0.111661,0.10386 c 0.06141,0.0571 0.111661,0.10737 0.111661,0.11166 0,0.0199 -0.02288,-10e-6 -0.119465,-0.10386 z m -0.666657,-1.76906 c 0.0013,-0.0306 0.0075,-0.0368 0.01587,-0.0159 0.0076,0.019 0.0067,0.0416 -0.0021,0.0504 -0.0087,0.009 -0.01494,-0.007 -0.0138,-0.0345 z m 1.631988,-0.33936 c 5.74e-4,-0.0434 0.0064,-0.0579 0.01309,-0.0323 0.0067,0.0256 0.0062,0.061 -9.77e-4,0.0788 -0.0072,0.0178 -0.01265,-0.003 -0.01211,-0.0465 z m -1.654053,-3.28918 c -0.0035,-1.72234 0.0026,-3.13701 0.01342,-3.14371 0.01783,-0.011 0.0177,2.16551 -3.28e-4,5.1455 -0.0038,0.62136 -0.0097,-0.27944 -0.01311,-2.00179 z m 2.299192,0.10357 c 0.35042,-0.004 0.923833,-0.004 1.274252,0 0.350419,0.004 0.06371,0.008 -0.637126,0.008 -0.700838,0 -0.987545,-0.003 -0.637126,-0.008 z m -4.51735,-0.0771 c 0.01897,-0.008 0.04163,-0.007 0.05036,0.002 0.0087,0.009 -0.0068,0.0149 -0.03448,0.0138 -0.03061,-0.001 -0.03683,-0.007 -0.01587,-0.0159 z m -0.697883,-0.0264 c 0.02529,-0.007 0.06667,-0.007 0.09196,0 0.02529,0.007 0.0046,0.012 -0.04598,0.012 -0.05058,0 -0.07127,-0.005 -0.04598,-0.012 z m 0.275869,-4.1e-4 c 0.03251,-0.006 0.08572,-0.006 0.11823,0 0.03251,0.006 0.0059,0.0114 -0.05911,0.0114 -0.06503,0 -0.09163,-0.005 -0.05912,-0.0114 z m -0.944194,-1.36562 c 0.01897,-0.008 0.04163,-0.007 0.05036,0.002 0.0087,0.009 -0.0068,0.0149 -0.03448,0.0138 -0.03061,-10e-4 -0.03683,-0.007 -0.01587,-0.0159 z m 0.289006,-0.0263 c 0.01897,-0.008 0.04163,-0.007 0.05036,0.002 0.0087,0.009 -0.0068,0.0149 -0.03448,0.0138 -0.03061,-0.001 -0.03683,-0.007 -0.01587,-0.0159 z m 1.077202,0 c 0.01897,-0.008 0.04163,-0.007 0.05036,0.002 0.0087,0.009 -0.0068,0.0149 -0.03448,0.0138 -0.03061,-0.001 -0.03683,-0.007 -0.01587,-0.0159 z m -0.474254,-0.0269 c 0.03268,-0.006 0.07997,-0.006 0.105093,5.8e-4 0.02512,0.007 -0.0016,0.0117 -0.05942,0.0114 -0.0578,-3.2e-4 -0.07835,-0.006 -0.04567,-0.012 z"
     id="path2" /><style
     type="text/css"
     id="style1">
	.st0{fill:#FFFFFF;}
</style><g
     transform="matrix(0.0022973,0,0,0.0022973,4.0254833,17.922285)"
     id="g16"
     style="clip-rule:evenodd;fill-rule:evenodd;stroke-width:435.293;stroke-linejoin:round;stroke-miterlimit:2">
        <g
   id="g5"
   style="stroke-width:435.293">
            <path
   d="m 6325.56,4386.06 -128.15,-1.59 0.26,261.02 h 27.99 l 0.44,171.79 4.21,63.88 34.89,1.2 35.1,0.79 -3.13,-63.48 0.64,-172.19 13.36,-1.19 13.57,-1.2 z"
   style="fill:#888888;fill-rule:nonzero;stroke-width:435.293"
   id="path1-0" />
            <path
   d="m 6361.03,4200.18 -200.26,1.38 0.58,203.32 17.87,1.19 17.66,1.2 128.15,1.59 17.87,-1.2 17.67,-1.19 z"
   style="fill:#626262;fill-rule:nonzero;stroke-width:435.293"
   id="path2-9" />
            <path
   d="m 6471.27,1925.72 -391.36,1.1 -30.61,131.55 c 0,0 31,1247.91 31,1595.66 l -14.99,310.92 23.97,173.11 43.45,94.23 247.19,1.12 60.1,-91.78 33.28,-156.27 -14.76,-343.24 41.04,-1582.94 z"
   style="fill:#626262;fill-rule:nonzero;stroke-width:435.293"
   id="path3-4" />
            <path
   d="m 6119.18,1535.71 c 0,15.48 -14.68,38.32 -14.68,156.84 l -0.25,45.45 h 178.54 l 0.25,-43.82 c 0,-122.96 -15.33,-142.06 -15.33,-158.35 v -19.95 l -75.07,-0.49 -73.46,-0.04 z"
   style="fill:#888888;fill-rule:nonzero;stroke-width:435.293"
   id="path4-8" />
            <path
   d="m 6273.94,1734.34 h -178.54 -56.27 c -75.94,0 -131.53,6.52 -207.02,24.84 -39.1,9.78 -44.75,12.63 -48.36,26.48 -3.62,14.66 -3.17,19.95 3.39,33.8 7.23,15.47 12.2,15.88 51.07,4.48 125.66,-36.25 232.78,7.78 245.67,91.67 0.15,0.9 8.23,2.28 8.23,2.28 l 373.93,-1.42 v -68.09 h 58.76 v -30.55 c 0,-28.1 -0.45,-30.54 -4.97,-32.58 -2.94,-0.82 -32.55,-9.37 -66.22,-18.33 -33.45,-8.96 -78.2,-21.18 -98.99,-26.88 -21.02,-5.7 -31.93,-9.77 -32.38,-8.55 -0.67,1.22 -0.45,27.69 0.45,59.05 l 1.59,57.43 9.26,1.22 2.55,1.22 v 47.65 l -11.98,0.82 -11.75,0.4 v -160.05 l -7.01,-2.45 c -3.84,-1.22 -12.65,-2.44 -19.21,-2.44 z"
   style="fill:#626262;fill-rule:nonzero;stroke-width:435.293"
   id="path5-8" />
        </g>
        <g
   id="g8"
   style="stroke-width:435.293">
            <g
   transform="translate(-218.342,4244.92)"
   id="g6"
   style="stroke-width:435.293">
                <text
   x="0"
   y="0"
   style="font-size:4613.93px;font-family:ArialMT, Arial, sans-serif;fill:#626262;stroke-width:435.293"
   id="text5">S</text>
            </g>
            <g
   transform="translate(3023.51,4244.92)"
   id="g7"
   style="stroke-width:435.293">
                <text
   x="0"
   y="0"
   style="font-size:4613.93px;font-family:ArialMT, Arial, sans-serif;fill:#626262;stroke-width:435.293"
   id="text6">c</text>
            </g>
        </g>
        <g
   id="g11"
   style="stroke-width:435.293">
            <g
   transform="translate(9920.06,4494.92)"
   id="g9"
   style="stroke-width:435.293">
                <text
   x="0"
   y="0"
   style="font-size:4613.93px;font-family:ArialMT, Arial, sans-serif;fill:#399a8f;stroke-width:435.293"
   id="text8">r</text>
            </g>
            <g
   transform="translate(11538.6,4494.92)"
   id="g10"
   style="stroke-width:435.293">
                <text
   x="0"
   y="0"
   style="font-size:4613.93px;font-family:ArialMT, Arial, sans-serif;fill:#399a8f;stroke-width:435.293"
   id="text9">aw</text>
            </g>
        </g>
        <g
   id="g15"
   style="stroke-width:435.293">
            <path
   d="m 10007.1,2700.48 c 0,-157.34 -38.23,-364.45 -123.44,-562.53 -36.78,-85.51 -100.58,-206.9 -176.81,-307.22 -63.05,-82.99 -118.27,-144.8 -169.79,-188.84 -169.55,-144.91 -291.2,-220.16 -450.75,-317.1 -133.87,-81.35 -237.87,-149.65 -322.44,-255.42 -84.71,-105.939 -199.35,-226.583 -296.96,-271.233 -107.46,-49.153 -203.74,-72.819 -329.67,-72.819 -62.25,0 -121.55,10.142 -177.42,27.658 0,0 -118.92,33.568 -203.18,80.495 -73.48,40.92 -113.45,95.526 -117.3,101.486 -4.6,7.132 -25.22,31.383 -27.43,45.235 -5.76,36.178 9.91,80.508 19.26,136.088 14.43,85.86 43.66,193.92 43.66,193.92 0,0 35.34,151.09 45.11,186.8 32.62,119.24 39.05,125.08 91.38,177.73 60,60.36 199.11,93.5 326.35,87.99 195.14,-8.43 323.87,-70.39 514.7,-60.19 205.4,10.98 368.55,64.53 563.65,255.81 75.11,73.63 174.95,188.76 222.69,283.07 35.09,69.31 54.29,137.76 72.52,214.09 6.58,27.51 13.97,66.48 17.71,95.2 6.34,48.64 14.2,184.19 2.96,334.99 -9.72,130.35 -47.49,271.72 -98.06,376.87 -73.72,153.31 -174.07,290.07 -294.6,406.03 -220.22,211.88 -445.99,352.61 -618.89,400.66 -203.25,56.47 -212.82,73.18 -321.91,101.49 -96.13,24.96 -451.76,89.03 -451.76,89.03 l -112.63,33.31 1406.34,0.42 c 0,0 0.39,-25.43 -9.78,-38.86 -17.54,-23.16 -38.8,-57.18 -24.32,-70.57 141.32,-130.7 614.51,-324.27 817.32,-698.41 64.08,-118.21 124.88,-258.63 153.12,-410.26 23.09,-123.93 30.37,-257.48 30.37,-374.92 z M 8137.23,1647.26 c -238.67,0 -419.64,-184.4 -419.64,-407.97 0,-223.57 180.97,-403.334 419.64,-403.334 189.17,0 349.92,114.32 408.73,272.894 22.38,60.33 20.92,253.27 -42.14,347.57 -76.46,114.32 -212.21,190.84 -366.59,190.84 z"
   style="fill:#399a8f;fill-rule:nonzero;stroke-width:435.293"
   id="path11" />
            <path
   d="m 8641.48,4317.49 -1057.41,-1.61 -505.91,170.89 -10.68,25.44 2160.26,2.43 -14.52,-47.8 -125.58,-148.7 z"
   style="fill:#888888;fill-rule:nonzero;stroke-width:435.293"
   id="path12" />
            <g
   id="g14"
   style="stroke-width:435.293">
                <path
   d="M 7855.91,2906.27 7392.57,897.45 7338.19,620.678 c -0.91,-4.058 66.4,-220.26 27.3,-212.44 l -447.63,85.414 c -39.1,7.819 110.74,186.235 111.65,190.293 l 60.91,277.407 436.13,2009.988 c 0,0 97.2,23.94 184.19,6.54 86.98,-17.39 145.17,-71.6 145.17,-71.6 z"
   style="fill:#399a8f;fill-rule:nonzero;stroke-width:435.293"
   id="path13" />
                <path
   d="M 7917.14,2451.99 7562.75,864.84 c -12.38,-55.46 -67.63,-91.983 -126.5,-86.334 l -411.03,82.205 c -56.24,17.373 -91.16,71.93 -78.78,127.39 l 354.39,1587.149 c 13.09,58.62 73.64,96.44 136.29,85.32 l 391.37,-78.27 c 61.95,-14.28 101.74,-71.69 88.65,-130.31 z"
   style="fill:#626262;fill-rule:nonzero;stroke-width:435.293"
   id="path14" />
            </g>
        </g>
        <rect
   x="7168.2402"
   y="3740.8401"
   width="1596.12"
   height="132.239"
   style="fill:#888888;stroke-width:435.293"
   id="rect15" />
    </g></svg>
